<svg width="429" height="387" viewBox="0 0 429 387" fill="none" xmlns="http://www.w3.org/2000/svg">
<g filter="url(#filter0_d_2_214)">
<rect x="79.9999" y="6.93127" width="268.932" height="268.932" rx="15" fill="white"/>
</g>
<g opacity="0.7" filter="url(#filter1_d_2_214)">
<path d="M79.9999 265.931L348.932 265.931C348.932 271.532 344.391 276.072 338.791 276.072H90.141C84.5402 276.072 79.9999 271.532 79.9999 265.931V265.931Z" fill="#FD695A"/>
</g>
<path d="M157.42 150.111C155.46 150.111 153.973 149.611 152.96 148.611C151.96 147.598 151.46 146.118 151.46 144.171V135.691H154V144.311C154 145.538 154.287 146.471 154.86 147.111C155.433 147.738 156.287 148.051 157.42 148.051C158.527 148.051 159.367 147.731 159.94 147.091C160.527 146.451 160.82 145.525 160.82 144.311V135.691H163.36V144.171C163.36 146.105 162.853 147.578 161.84 148.591C160.827 149.605 159.353 150.111 157.42 150.111ZM166.345 135.691H168.925V149.931H166.345V135.691ZM183.377 150.111C181.417 150.111 179.93 149.611 178.917 148.611C177.917 147.598 177.417 146.118 177.417 144.171V135.691H179.957V144.311C179.957 145.538 180.244 146.471 180.817 147.111C181.39 147.738 182.244 148.051 183.377 148.051C184.484 148.051 185.324 147.731 185.897 147.091C186.484 146.451 186.777 145.525 186.777 144.311V135.691H189.317V144.171C189.317 146.105 188.81 147.578 187.797 148.591C186.784 149.605 185.31 150.111 183.377 150.111ZM204.205 149.931H201.185L197.325 144.611L193.465 149.931H190.445L195.865 142.671L190.625 135.691H193.645L197.325 140.791L201.045 135.691H204.045L198.785 142.691L204.205 149.931ZM211.071 135.691H216.311C218.645 135.691 220.451 136.311 221.731 137.551C223.025 138.791 223.671 140.538 223.671 142.791C223.671 145.058 223.025 146.818 221.731 148.071C220.451 149.311 218.645 149.931 216.311 149.931H211.071V135.691ZM216.151 147.831C219.431 147.831 221.071 146.151 221.071 142.791C221.071 139.458 219.431 137.791 216.151 137.791H213.651V147.831H216.151ZM234.966 145.011H228.006C228.059 146.091 228.326 146.891 228.806 147.411C229.299 147.918 230.026 148.171 230.986 148.171C232.092 148.171 233.119 147.811 234.066 147.091L234.786 148.811C234.306 149.198 233.712 149.511 233.006 149.751C232.312 149.978 231.606 150.091 230.886 150.091C229.232 150.091 227.932 149.625 226.986 148.691C226.039 147.758 225.566 146.478 225.566 144.851C225.566 143.825 225.772 142.911 226.186 142.111C226.599 141.311 227.179 140.691 227.926 140.251C228.672 139.798 229.519 139.571 230.466 139.571C231.852 139.571 232.946 140.025 233.746 140.931C234.559 141.825 234.966 143.058 234.966 144.631V145.011ZM230.526 141.371C229.859 141.371 229.312 141.571 228.886 141.971C228.472 142.358 228.206 142.925 228.086 143.671H232.786C232.706 142.911 232.472 142.338 232.086 141.951C231.712 141.565 231.192 141.371 230.526 141.371ZM240.783 150.091C238.956 150.091 237.503 149.665 236.423 148.811L237.123 147.051C238.203 147.851 239.436 148.251 240.823 148.251C241.423 148.251 241.883 148.151 242.203 147.951C242.536 147.751 242.703 147.471 242.703 147.111C242.703 146.805 242.589 146.565 242.363 146.391C242.136 146.205 241.749 146.045 241.203 145.911L239.523 145.531C237.683 145.131 236.763 144.191 236.763 142.711C236.763 142.098 236.936 141.558 237.283 141.091C237.629 140.611 238.116 140.238 238.743 139.971C239.369 139.705 240.096 139.571 240.923 139.571C241.643 139.571 242.336 139.685 243.003 139.911C243.669 140.125 244.256 140.438 244.763 140.851L244.023 142.551C243.009 141.805 241.969 141.431 240.903 141.431C240.329 141.431 239.883 141.538 239.563 141.751C239.243 141.965 239.083 142.258 239.083 142.631C239.083 142.925 239.176 143.158 239.363 143.331C239.563 143.505 239.896 143.651 240.363 143.771L242.083 144.151C243.083 144.378 243.809 144.731 244.263 145.211C244.729 145.678 244.963 146.291 244.963 147.051C244.963 147.985 244.589 148.725 243.843 149.271C243.096 149.818 242.076 150.091 240.783 150.091ZM247.102 139.831H249.582V149.931H247.102V139.831ZM249.722 135.251V137.711H246.942V135.251H249.722ZM262.077 139.831V149.611C262.077 151.185 261.644 152.378 260.777 153.191C259.91 154.005 258.637 154.411 256.957 154.411C255.397 154.411 254.024 154.085 252.837 153.431L253.237 151.531C254.464 152.171 255.684 152.491 256.897 152.491C258.697 152.491 259.597 151.598 259.597 149.811V147.811C259.29 148.358 258.844 148.805 258.257 149.151C257.67 149.485 257.01 149.651 256.277 149.651C255.397 149.651 254.61 149.445 253.917 149.031C253.237 148.605 252.704 148.011 252.317 147.251C251.944 146.478 251.757 145.598 251.757 144.611C251.757 143.625 251.944 142.751 252.317 141.991C252.704 141.218 253.237 140.625 253.917 140.211C254.61 139.785 255.397 139.571 256.277 139.571C257.024 139.571 257.684 139.731 258.257 140.051C258.844 140.358 259.29 140.791 259.597 141.351V139.831H262.077ZM256.937 147.691C257.764 147.691 258.41 147.418 258.877 146.871C259.357 146.325 259.597 145.571 259.597 144.611C259.597 143.651 259.364 142.898 258.897 142.351C258.43 141.805 257.777 141.531 256.937 141.531C256.11 141.531 255.457 141.805 254.977 142.351C254.51 142.898 254.277 143.651 254.277 144.611C254.277 145.571 254.51 146.325 254.977 146.871C255.457 147.418 256.11 147.691 256.937 147.691ZM270.558 139.571C272.971 139.571 274.178 140.958 274.178 143.731V149.931H271.678V143.851C271.678 143.051 271.525 142.471 271.218 142.111C270.911 141.738 270.438 141.551 269.798 141.551C269.038 141.551 268.425 141.798 267.958 142.291C267.491 142.771 267.258 143.411 267.258 144.211V149.931H264.778V142.691C264.778 141.625 264.725 140.671 264.618 139.831H266.958L267.138 141.491C267.485 140.878 267.951 140.405 268.538 140.071C269.138 139.738 269.811 139.571 270.558 139.571Z" fill="#37383D"/>
<path d="M108.213 183.931V175.413H105.391V174.481H112.168V175.413H109.347V183.931H108.213ZM113.486 183.931V174.211H114.62V178.383C114.845 177.969 115.164 177.649 115.578 177.424C115.992 177.19 116.442 177.073 116.928 177.073C117.702 177.073 118.323 177.316 118.791 177.802C119.259 178.279 119.493 179.017 119.493 180.016V183.931H118.373V180.138C118.373 178.743 117.81 178.045 116.685 178.045C116.1 178.045 115.61 178.257 115.214 178.68C114.818 179.094 114.62 179.688 114.62 180.462V183.931H113.486ZM123.439 184.093C122.881 184.093 122.417 183.999 122.048 183.81C121.679 183.621 121.405 183.369 121.225 183.054C121.045 182.739 120.955 182.397 120.955 182.028C120.955 181.344 121.216 180.817 121.738 180.448C122.26 180.079 122.971 179.895 123.871 179.895H125.68V179.814C125.68 179.229 125.527 178.788 125.221 178.491C124.915 178.185 124.505 178.032 123.992 178.032C123.551 178.032 123.169 178.144 122.845 178.369C122.53 178.585 122.332 178.905 122.251 179.328H121.09C121.135 178.842 121.297 178.432 121.576 178.099C121.864 177.766 122.219 177.514 122.642 177.343C123.065 177.163 123.515 177.073 123.992 177.073C124.928 177.073 125.63 177.325 126.098 177.829C126.575 178.324 126.814 178.986 126.814 179.814V183.931H125.801L125.734 182.73C125.545 183.108 125.266 183.432 124.897 183.702C124.537 183.963 124.051 184.093 123.439 184.093ZM123.614 183.135C124.046 183.135 124.415 183.022 124.721 182.797C125.036 182.572 125.275 182.28 125.437 181.92C125.599 181.56 125.68 181.182 125.68 180.786V180.772H123.965C123.299 180.772 122.827 180.889 122.548 181.123C122.278 181.348 122.143 181.632 122.143 181.974C122.143 182.325 122.269 182.608 122.521 182.824C122.782 183.031 123.146 183.135 123.614 183.135ZM130.976 183.931C130.364 183.931 129.883 183.783 129.532 183.486C129.181 183.189 129.005 182.653 129.005 181.879V178.194H127.844V177.235H129.005L129.154 175.629H130.139V177.235H132.11V178.194H130.139V181.879C130.139 182.302 130.225 182.59 130.396 182.743C130.567 182.887 130.868 182.959 131.3 182.959H132.002V183.931H130.976ZM137.812 175.75C137.587 175.75 137.398 175.678 137.245 175.534C137.101 175.381 137.029 175.192 137.029 174.967C137.029 174.751 137.101 174.571 137.245 174.427C137.398 174.283 137.587 174.211 137.812 174.211C138.028 174.211 138.213 174.283 138.366 174.427C138.519 174.571 138.595 174.751 138.595 174.967C138.595 175.192 138.519 175.381 138.366 175.534C138.213 175.678 138.028 175.75 137.812 175.75ZM137.245 183.931V177.235H138.379V183.931H137.245ZM142.919 184.093C142.118 184.093 141.452 183.891 140.921 183.486C140.39 183.081 140.079 182.532 139.989 181.839H141.15C141.222 182.19 141.407 182.496 141.704 182.757C142.01 183.009 142.419 183.135 142.932 183.135C143.409 183.135 143.76 183.036 143.985 182.838C144.21 182.631 144.323 182.388 144.323 182.109C144.323 181.704 144.174 181.434 143.877 181.299C143.589 181.164 143.18 181.042 142.649 180.934C142.289 180.862 141.929 180.759 141.569 180.624C141.209 180.489 140.907 180.3 140.664 180.057C140.421 179.805 140.3 179.476 140.3 179.071C140.3 178.486 140.516 178.009 140.948 177.64C141.389 177.262 141.983 177.073 142.73 177.073C143.441 177.073 144.021 177.253 144.471 177.613C144.93 177.964 145.196 178.468 145.268 179.125H144.147C144.102 178.783 143.954 178.518 143.702 178.329C143.459 178.131 143.13 178.032 142.716 178.032C142.311 178.032 141.996 178.117 141.771 178.288C141.555 178.459 141.447 178.684 141.447 178.963C141.447 179.233 141.587 179.445 141.866 179.598C142.154 179.751 142.541 179.881 143.027 179.989C143.441 180.079 143.832 180.192 144.201 180.327C144.579 180.453 144.885 180.646 145.119 180.907C145.362 181.159 145.484 181.528 145.484 182.014C145.493 182.617 145.263 183.117 144.795 183.513C144.336 183.9 143.711 184.093 142.919 184.093ZM153.323 183.931C152.711 183.931 152.229 183.783 151.878 183.486C151.527 183.189 151.352 182.653 151.352 181.879V178.194H150.191V177.235H151.352L151.5 175.629H152.486V177.235H154.457V178.194H152.486V181.879C152.486 182.302 152.571 182.59 152.742 182.743C152.913 182.887 153.215 182.959 153.647 182.959H154.349V183.931H153.323ZM155.897 183.931V174.211H157.031V178.383C157.256 177.969 157.576 177.649 157.99 177.424C158.404 177.19 158.854 177.073 159.34 177.073C160.114 177.073 160.735 177.316 161.203 177.802C161.671 178.279 161.905 179.017 161.905 180.016V183.931H160.784V180.138C160.784 178.743 160.222 178.045 159.097 178.045C158.512 178.045 158.021 178.257 157.625 178.68C157.229 179.094 157.031 179.688 157.031 180.462V183.931H155.897ZM166.633 184.093C165.994 184.093 165.427 183.949 164.932 183.661C164.437 183.364 164.046 182.955 163.758 182.433C163.479 181.911 163.339 181.294 163.339 180.583C163.339 179.881 163.479 179.269 163.758 178.747C164.037 178.216 164.424 177.807 164.919 177.519C165.423 177.222 166.003 177.073 166.66 177.073C167.308 177.073 167.866 177.222 168.334 177.519C168.811 177.807 169.176 178.189 169.428 178.666C169.68 179.143 169.806 179.656 169.806 180.205C169.806 180.304 169.801 180.403 169.792 180.502C169.792 180.601 169.792 180.714 169.792 180.84H164.46C164.487 181.353 164.604 181.78 164.811 182.122C165.027 182.455 165.292 182.707 165.607 182.878C165.931 183.049 166.273 183.135 166.633 183.135C167.101 183.135 167.493 183.027 167.808 182.811C168.123 182.595 168.352 182.302 168.496 181.933H169.617C169.437 182.554 169.09 183.072 168.577 183.486C168.073 183.891 167.425 184.093 166.633 184.093ZM166.633 178.032C166.093 178.032 165.612 178.198 165.189 178.531C164.775 178.855 164.536 179.332 164.473 179.962H168.685C168.658 179.359 168.451 178.887 168.064 178.545C167.677 178.203 167.2 178.032 166.633 178.032ZM177.447 184.093C176.646 184.093 175.98 183.891 175.449 183.486C174.918 183.081 174.607 182.532 174.517 181.839H175.678C175.75 182.19 175.935 182.496 176.232 182.757C176.538 183.009 176.947 183.135 177.46 183.135C177.937 183.135 178.288 183.036 178.513 182.838C178.738 182.631 178.851 182.388 178.851 182.109C178.851 181.704 178.702 181.434 178.405 181.299C178.117 181.164 177.708 181.042 177.177 180.934C176.817 180.862 176.457 180.759 176.097 180.624C175.737 180.489 175.435 180.3 175.192 180.057C174.949 179.805 174.828 179.476 174.828 179.071C174.828 178.486 175.044 178.009 175.476 177.64C175.917 177.262 176.511 177.073 177.258 177.073C177.969 177.073 178.549 177.253 178.999 177.613C179.458 177.964 179.724 178.468 179.796 179.125H178.675C178.63 178.783 178.482 178.518 178.23 178.329C177.987 178.131 177.658 178.032 177.244 178.032C176.839 178.032 176.524 178.117 176.299 178.288C176.083 178.459 175.975 178.684 175.975 178.963C175.975 179.233 176.115 179.445 176.394 179.598C176.682 179.751 177.069 179.881 177.555 179.989C177.969 180.079 178.36 180.192 178.729 180.327C179.107 180.453 179.413 180.646 179.647 180.907C179.89 181.159 180.012 181.528 180.012 182.014C180.021 182.617 179.791 183.117 179.323 183.513C178.864 183.9 178.239 184.093 177.447 184.093ZM182.32 175.75C182.095 175.75 181.906 175.678 181.753 175.534C181.609 175.381 181.537 175.192 181.537 174.967C181.537 174.751 181.609 174.571 181.753 174.427C181.906 174.283 182.095 174.211 182.32 174.211C182.536 174.211 182.721 174.283 182.874 174.427C183.027 174.571 183.103 174.751 183.103 174.967C183.103 175.192 183.027 175.381 182.874 175.534C182.721 175.678 182.536 175.75 182.32 175.75ZM181.753 183.931V177.235H182.887V183.931H181.753ZM184.862 183.931V177.235H185.888L185.969 178.207C186.185 177.847 186.473 177.568 186.833 177.37C187.193 177.172 187.598 177.073 188.048 177.073C188.579 177.073 189.033 177.181 189.411 177.397C189.798 177.613 190.095 177.942 190.302 178.383C190.536 177.978 190.856 177.658 191.261 177.424C191.675 177.19 192.12 177.073 192.597 177.073C193.398 177.073 194.037 177.316 194.514 177.802C194.991 178.279 195.23 179.017 195.23 180.016V183.931H194.109V180.138C194.109 179.445 193.97 178.923 193.691 178.572C193.412 178.221 193.011 178.045 192.489 178.045C191.949 178.045 191.499 178.257 191.139 178.68C190.788 179.094 190.613 179.688 190.613 180.462V183.931H189.479V180.138C189.479 179.445 189.339 178.923 189.06 178.572C188.781 178.221 188.381 178.045 187.859 178.045C187.328 178.045 186.882 178.257 186.522 178.68C186.171 179.094 185.996 179.688 185.996 180.462V183.931H184.862ZM196.938 186.901V177.235H197.964L198.072 178.342C198.288 178.018 198.594 177.726 198.99 177.465C199.395 177.204 199.908 177.073 200.529 177.073C201.195 177.073 201.775 177.226 202.27 177.532C202.765 177.838 203.148 178.257 203.418 178.788C203.697 179.319 203.836 179.922 203.836 180.597C203.836 181.272 203.697 181.875 203.418 182.406C203.148 182.928 202.761 183.342 202.257 183.648C201.762 183.945 201.181 184.093 200.515 184.093C199.966 184.093 199.476 183.981 199.044 183.756C198.621 183.531 198.297 183.216 198.072 182.811V186.901H196.938ZM200.394 183.108C200.844 183.108 201.24 183.004 201.582 182.797C201.924 182.581 202.194 182.284 202.392 181.906C202.59 181.528 202.689 181.087 202.689 180.583C202.689 180.079 202.59 179.638 202.392 179.26C202.194 178.882 201.924 178.59 201.582 178.383C201.24 178.167 200.844 178.059 200.394 178.059C199.944 178.059 199.548 178.167 199.206 178.383C198.864 178.59 198.594 178.882 198.396 179.26C198.198 179.638 198.099 180.079 198.099 180.583C198.099 181.087 198.198 181.528 198.396 181.906C198.594 182.284 198.864 182.581 199.206 182.797C199.548 183.004 199.944 183.108 200.394 183.108ZM205.415 183.931V174.211H206.549V183.931H205.415ZM209.137 186.901L210.797 183.283H210.406L207.746 177.235H208.975L211.189 182.446L213.538 177.235H214.712L210.325 186.901H209.137ZM222.519 184.093C221.853 184.093 221.268 183.94 220.764 183.634C220.269 183.328 219.882 182.91 219.603 182.379C219.333 181.848 219.198 181.245 219.198 180.57C219.198 179.895 219.338 179.296 219.617 178.774C219.896 178.243 220.283 177.829 220.778 177.532C221.273 177.226 221.858 177.073 222.533 177.073C223.082 177.073 223.568 177.186 223.991 177.411C224.414 177.636 224.742 177.951 224.976 178.356V174.211H226.11V183.931H225.084L224.976 182.824C224.76 183.148 224.45 183.441 224.045 183.702C223.64 183.963 223.131 184.093 222.519 184.093ZM222.641 183.108C223.091 183.108 223.487 183.004 223.829 182.797C224.18 182.581 224.45 182.284 224.639 181.906C224.837 181.528 224.936 181.087 224.936 180.583C224.936 180.079 224.837 179.638 224.639 179.26C224.45 178.882 224.18 178.59 223.829 178.383C223.487 178.167 223.091 178.059 222.641 178.059C222.2 178.059 221.804 178.167 221.453 178.383C221.111 178.59 220.841 178.882 220.643 179.26C220.454 179.638 220.359 180.079 220.359 180.583C220.359 181.087 220.454 181.528 220.643 181.906C220.841 182.284 221.111 182.581 221.453 182.797C221.804 183.004 222.2 183.108 222.641 183.108ZM230.402 184.093C229.61 184.093 228.98 183.855 228.512 183.378C228.044 182.892 227.81 182.149 227.81 181.15V177.235H228.944V181.029C228.944 182.424 229.516 183.121 230.659 183.121C231.244 183.121 231.725 182.914 232.103 182.5C232.49 182.077 232.684 181.479 232.684 180.705V177.235H233.818V183.931H232.792L232.711 182.73C232.504 183.153 232.193 183.486 231.779 183.729C231.374 183.972 230.915 184.093 230.402 184.093ZM235.684 183.931V177.235H236.71L236.791 178.207C237.007 177.847 237.295 177.568 237.655 177.37C238.015 177.172 238.42 177.073 238.87 177.073C239.401 177.073 239.856 177.181 240.234 177.397C240.621 177.613 240.918 177.942 241.125 178.383C241.359 177.978 241.678 177.658 242.083 177.424C242.497 177.19 242.943 177.073 243.42 177.073C244.221 177.073 244.86 177.316 245.337 177.802C245.814 178.279 246.052 179.017 246.052 180.016V183.931H244.932V180.138C244.932 179.445 244.792 178.923 244.513 178.572C244.234 178.221 243.834 178.045 243.312 178.045C242.772 178.045 242.322 178.257 241.962 178.68C241.611 179.094 241.435 179.688 241.435 180.462V183.931H240.301V180.138C240.301 179.445 240.162 178.923 239.883 178.572C239.604 178.221 239.203 178.045 238.681 178.045C238.15 178.045 237.705 178.257 237.345 178.68C236.994 179.094 236.818 179.688 236.818 180.462V183.931H235.684ZM247.761 183.931V177.235H248.787L248.868 178.207C249.084 177.847 249.372 177.568 249.732 177.37C250.092 177.172 250.497 177.073 250.947 177.073C251.478 177.073 251.932 177.181 252.31 177.397C252.697 177.613 252.994 177.942 253.201 178.383C253.435 177.978 253.755 177.658 254.16 177.424C254.574 177.19 255.019 177.073 255.496 177.073C256.297 177.073 256.936 177.316 257.413 177.802C257.89 178.279 258.129 179.017 258.129 180.016V183.931H257.008V180.138C257.008 179.445 256.869 178.923 256.59 178.572C256.311 178.221 255.91 178.045 255.388 178.045C254.848 178.045 254.398 178.257 254.038 178.68C253.687 179.094 253.512 179.688 253.512 180.462V183.931H252.378V180.138C252.378 179.445 252.238 178.923 251.959 178.572C251.68 178.221 251.28 178.045 250.758 178.045C250.227 178.045 249.781 178.257 249.421 178.68C249.07 179.094 248.895 179.688 248.895 180.462V183.931H247.761ZM260.368 186.901L262.028 183.283H261.637L258.977 177.235H260.206L262.42 182.446L264.769 177.235H265.943L261.556 186.901H260.368ZM273.359 183.931C272.747 183.931 272.266 183.783 271.915 183.486C271.564 183.189 271.388 182.653 271.388 181.879V178.194H270.227V177.235H271.388L271.537 175.629H272.522V177.235H274.493V178.194H272.522V181.879C272.522 182.302 272.608 182.59 272.779 182.743C272.95 182.887 273.251 182.959 273.683 182.959H274.385V183.931H273.359ZM278.76 184.093C278.121 184.093 277.554 183.949 277.059 183.661C276.564 183.364 276.172 182.955 275.884 182.433C275.605 181.911 275.466 181.294 275.466 180.583C275.466 179.881 275.605 179.269 275.884 178.747C276.163 178.216 276.55 177.807 277.045 177.519C277.549 177.222 278.13 177.073 278.787 177.073C279.435 177.073 279.993 177.222 280.461 177.519C280.938 177.807 281.302 178.189 281.554 178.666C281.806 179.143 281.932 179.656 281.932 180.205C281.932 180.304 281.928 180.403 281.919 180.502C281.919 180.601 281.919 180.714 281.919 180.84H276.586C276.613 181.353 276.73 181.78 276.937 182.122C277.153 182.455 277.419 182.707 277.734 182.878C278.058 183.049 278.4 183.135 278.76 183.135C279.228 183.135 279.619 183.027 279.934 182.811C280.249 182.595 280.479 182.302 280.623 181.933H281.743C281.563 182.554 281.217 183.072 280.704 183.486C280.2 183.891 279.552 184.093 278.76 184.093ZM278.76 178.032C278.22 178.032 277.738 178.198 277.315 178.531C276.901 178.855 276.663 179.332 276.6 179.962H280.812C280.785 179.359 280.578 178.887 280.191 178.545C279.804 178.203 279.327 178.032 278.76 178.032ZM282.444 183.931L284.766 180.583L282.444 177.235H283.672L285.549 180.003L287.439 177.235H288.654L286.332 180.583L288.654 183.931H287.439L285.549 181.164L283.672 183.931H282.444ZM292.489 183.931C291.877 183.931 291.395 183.783 291.044 183.486C290.693 183.189 290.518 182.653 290.518 181.879V178.194H289.357V177.235H290.518L290.666 175.629H291.652V177.235H293.623V178.194H291.652V181.879C291.652 182.302 291.737 182.59 291.908 182.743C292.079 182.887 292.381 182.959 292.813 182.959H293.515V183.931H292.489ZM301.282 183.931C300.67 183.931 300.189 183.783 299.838 183.486C299.487 183.189 299.311 182.653 299.311 181.879V178.194H298.15V177.235H299.311L299.46 175.629H300.445V177.235H302.416V178.194H300.445V181.879C300.445 182.302 300.531 182.59 300.702 182.743C300.873 182.887 301.174 182.959 301.606 182.959H302.308V183.931H301.282ZM303.857 183.931V174.211H304.991V178.383C305.216 177.969 305.535 177.649 305.949 177.424C306.363 177.19 306.813 177.073 307.299 177.073C308.073 177.073 308.694 177.316 309.162 177.802C309.63 178.279 309.864 179.017 309.864 180.016V183.931H308.744V180.138C308.744 178.743 308.181 178.045 307.056 178.045C306.471 178.045 305.981 178.257 305.585 178.68C305.189 179.094 304.991 179.688 304.991 180.462V183.931H303.857ZM314.593 184.093C313.954 184.093 313.387 183.949 312.892 183.661C312.397 183.364 312.005 182.955 311.717 182.433C311.438 181.911 311.299 181.294 311.299 180.583C311.299 179.881 311.438 179.269 311.717 178.747C311.996 178.216 312.383 177.807 312.878 177.519C313.382 177.222 313.963 177.073 314.62 177.073C315.268 177.073 315.826 177.222 316.294 177.519C316.771 177.807 317.135 178.189 317.387 178.666C317.639 179.143 317.765 179.656 317.765 180.205C317.765 180.304 317.761 180.403 317.752 180.502C317.752 180.601 317.752 180.714 317.752 180.84H312.419C312.446 181.353 312.563 181.78 312.77 182.122C312.986 182.455 313.252 182.707 313.567 182.878C313.891 183.049 314.233 183.135 314.593 183.135C315.061 183.135 315.452 183.027 315.767 182.811C316.082 182.595 316.312 182.302 316.456 181.933H317.576C317.396 182.554 317.05 183.072 316.537 183.486C316.033 183.891 315.385 184.093 314.593 184.093ZM314.593 178.032C314.053 178.032 313.571 178.198 313.148 178.531C312.734 178.855 312.496 179.332 312.433 179.962H316.645C316.618 179.359 316.411 178.887 316.024 178.545C315.637 178.203 315.16 178.032 314.593 178.032ZM105.931 212.901V203.235H106.957L107.065 204.342C107.281 204.018 107.587 203.726 107.983 203.465C108.388 203.204 108.901 203.073 109.522 203.073C110.188 203.073 110.769 203.226 111.264 203.532C111.759 203.838 112.141 204.257 112.411 204.788C112.69 205.319 112.83 205.922 112.83 206.597C112.83 207.272 112.69 207.875 112.411 208.406C112.141 208.928 111.754 209.342 111.25 209.648C110.755 209.945 110.175 210.093 109.509 210.093C108.96 210.093 108.469 209.981 108.037 209.756C107.614 209.531 107.29 209.216 107.065 208.811V212.901H105.931ZM109.387 209.108C109.837 209.108 110.233 209.004 110.575 208.797C110.917 208.581 111.187 208.284 111.385 207.906C111.583 207.528 111.682 207.087 111.682 206.583C111.682 206.079 111.583 205.638 111.385 205.26C111.187 204.882 110.917 204.59 110.575 204.383C110.233 204.167 109.837 204.059 109.387 204.059C108.937 204.059 108.541 204.167 108.199 204.383C107.857 204.59 107.587 204.882 107.389 205.26C107.191 205.638 107.092 206.079 107.092 206.583C107.092 207.087 107.191 207.528 107.389 207.906C107.587 208.284 107.857 208.581 108.199 208.797C108.541 209.004 108.937 209.108 109.387 209.108ZM114.408 209.931V203.235H115.434L115.529 204.518C115.736 204.077 116.051 203.726 116.474 203.465C116.897 203.204 117.419 203.073 118.04 203.073V204.261H117.729C117.333 204.261 116.969 204.333 116.636 204.477C116.303 204.612 116.037 204.846 115.839 205.179C115.641 205.512 115.542 205.971 115.542 206.556V209.931H114.408ZM120.001 201.75C119.776 201.75 119.587 201.678 119.434 201.534C119.29 201.381 119.218 201.192 119.218 200.967C119.218 200.751 119.29 200.571 119.434 200.427C119.587 200.283 119.776 200.211 120.001 200.211C120.217 200.211 120.402 200.283 120.555 200.427C120.708 200.571 120.784 200.751 120.784 200.967C120.784 201.192 120.708 201.381 120.555 201.534C120.402 201.678 120.217 201.75 120.001 201.75ZM119.434 209.931V203.235H120.568V209.931H119.434ZM122.543 209.931V203.235H123.569L123.636 204.437C123.852 204.014 124.163 203.681 124.568 203.438C124.973 203.195 125.432 203.073 125.945 203.073C126.737 203.073 127.367 203.316 127.835 203.802C128.312 204.279 128.55 205.017 128.55 206.016V209.931H127.416V206.138C127.416 204.743 126.84 204.045 125.688 204.045C125.112 204.045 124.631 204.257 124.244 204.68C123.866 205.094 123.677 205.688 123.677 206.462V209.931H122.543ZM132.914 209.931C132.302 209.931 131.821 209.783 131.47 209.486C131.119 209.189 130.943 208.653 130.943 207.879V204.194H129.782V203.235H130.943L131.092 201.629H132.077V203.235H134.048V204.194H132.077V207.879C132.077 208.302 132.163 208.59 132.334 208.743C132.505 208.887 132.806 208.959 133.238 208.959H133.94V209.931H132.914ZM136.178 201.75C135.953 201.75 135.764 201.678 135.611 201.534C135.467 201.381 135.395 201.192 135.395 200.967C135.395 200.751 135.467 200.571 135.611 200.427C135.764 200.283 135.953 200.211 136.178 200.211C136.394 200.211 136.578 200.283 136.731 200.427C136.884 200.571 136.961 200.751 136.961 200.967C136.961 201.192 136.884 201.381 136.731 201.534C136.578 201.678 136.394 201.75 136.178 201.75ZM135.611 209.931V203.235H136.745V209.931H135.611ZM138.719 209.931V203.235H139.745L139.813 204.437C140.029 204.014 140.339 203.681 140.744 203.438C141.149 203.195 141.608 203.073 142.121 203.073C142.913 203.073 143.543 203.316 144.011 203.802C144.488 204.279 144.727 205.017 144.727 206.016V209.931H143.593V206.138C143.593 204.743 143.017 204.045 141.865 204.045C141.289 204.045 140.807 204.257 140.42 204.68C140.042 205.094 139.853 205.688 139.853 206.462V209.931H138.719ZM149.091 207.825C148.713 207.825 148.366 207.776 148.051 207.677L147.376 208.311C147.475 208.383 147.597 208.446 147.741 208.5C147.894 208.545 148.11 208.59 148.389 208.635C148.668 208.671 149.059 208.712 149.563 208.757C150.463 208.82 151.107 209.027 151.494 209.378C151.881 209.729 152.074 210.188 152.074 210.755C152.074 211.142 151.966 211.511 151.75 211.862C151.543 212.213 151.219 212.501 150.778 212.726C150.346 212.951 149.788 213.063 149.104 213.063C148.501 213.063 147.966 212.982 147.498 212.82C147.03 212.667 146.665 212.429 146.404 212.105C146.143 211.79 146.013 211.389 146.013 210.903C146.013 210.651 146.08 210.377 146.215 210.08C146.35 209.792 146.602 209.517 146.971 209.256C146.773 209.175 146.602 209.09 146.458 209C146.323 208.901 146.197 208.793 146.08 208.676V208.365L147.228 207.231C146.697 206.781 146.431 206.187 146.431 205.449C146.431 205.008 146.535 204.608 146.742 204.248C146.949 203.888 147.25 203.604 147.646 203.397C148.042 203.181 148.524 203.073 149.091 203.073C149.478 203.073 149.829 203.127 150.144 203.235H152.614V204.086L151.359 204.14C151.62 204.518 151.75 204.954 151.75 205.449C151.75 205.89 151.642 206.291 151.426 206.651C151.219 207.011 150.918 207.299 150.522 207.515C150.135 207.722 149.658 207.825 149.091 207.825ZM149.091 206.894C149.568 206.894 149.946 206.772 150.225 206.529C150.513 206.277 150.657 205.917 150.657 205.449C150.657 204.99 150.513 204.639 150.225 204.396C149.946 204.144 149.568 204.018 149.091 204.018C148.605 204.018 148.218 204.144 147.93 204.396C147.651 204.639 147.511 204.99 147.511 205.449C147.511 205.917 147.651 206.277 147.93 206.529C148.218 206.772 148.605 206.894 149.091 206.894ZM147.12 210.795C147.12 211.245 147.309 211.578 147.687 211.794C148.065 212.019 148.537 212.132 149.104 212.132C149.662 212.132 150.108 212.01 150.441 211.767C150.783 211.524 150.954 211.2 150.954 210.795C150.954 210.507 150.837 210.255 150.603 210.039C150.369 209.832 149.937 209.711 149.307 209.675C148.812 209.639 148.384 209.594 148.024 209.54C147.655 209.738 147.412 209.949 147.295 210.174C147.178 210.408 147.12 210.615 147.12 210.795ZM159.694 210.093C159.136 210.093 158.672 209.999 158.303 209.81C157.934 209.621 157.66 209.369 157.48 209.054C157.3 208.739 157.21 208.397 157.21 208.028C157.21 207.344 157.471 206.817 157.993 206.448C158.515 206.079 159.226 205.895 160.126 205.895H161.935V205.814C161.935 205.229 161.782 204.788 161.476 204.491C161.17 204.185 160.76 204.032 160.247 204.032C159.806 204.032 159.424 204.144 159.1 204.369C158.785 204.585 158.587 204.905 158.506 205.328H157.345C157.39 204.842 157.552 204.432 157.831 204.099C158.119 203.766 158.474 203.514 158.897 203.343C159.32 203.163 159.77 203.073 160.247 203.073C161.183 203.073 161.885 203.325 162.353 203.829C162.83 204.324 163.069 204.986 163.069 205.814V209.931H162.056L161.989 208.73C161.8 209.108 161.521 209.432 161.152 209.702C160.792 209.963 160.306 210.093 159.694 210.093ZM159.869 209.135C160.301 209.135 160.67 209.022 160.976 208.797C161.291 208.572 161.53 208.28 161.692 207.92C161.854 207.56 161.935 207.182 161.935 206.786V206.772H160.22C159.554 206.772 159.082 206.889 158.803 207.123C158.533 207.348 158.398 207.632 158.398 207.974C158.398 208.325 158.524 208.608 158.776 208.824C159.037 209.031 159.401 209.135 159.869 209.135ZM164.77 209.931V203.235H165.796L165.863 204.437C166.079 204.014 166.39 203.681 166.795 203.438C167.2 203.195 167.659 203.073 168.172 203.073C168.964 203.073 169.594 203.316 170.062 203.802C170.539 204.279 170.777 205.017 170.777 206.016V209.931H169.643V206.138C169.643 204.743 169.067 204.045 167.915 204.045C167.339 204.045 166.858 204.257 166.471 204.68C166.093 205.094 165.904 205.688 165.904 206.462V209.931H164.77ZM175.533 210.093C174.867 210.093 174.282 209.94 173.778 209.634C173.283 209.328 172.896 208.91 172.617 208.379C172.347 207.848 172.212 207.245 172.212 206.57C172.212 205.895 172.351 205.296 172.63 204.774C172.909 204.243 173.296 203.829 173.791 203.532C174.286 203.226 174.871 203.073 175.546 203.073C176.095 203.073 176.581 203.186 177.004 203.411C177.427 203.636 177.756 203.951 177.99 204.356V200.211H179.124V209.931H178.098L177.99 208.824C177.774 209.148 177.463 209.441 177.058 209.702C176.653 209.963 176.145 210.093 175.533 210.093ZM175.654 209.108C176.104 209.108 176.5 209.004 176.842 208.797C177.193 208.581 177.463 208.284 177.652 207.906C177.85 207.528 177.949 207.087 177.949 206.583C177.949 206.079 177.85 205.638 177.652 205.26C177.463 204.882 177.193 204.59 176.842 204.383C176.5 204.167 176.104 204.059 175.654 204.059C175.213 204.059 174.817 204.167 174.466 204.383C174.124 204.59 173.854 204.882 173.656 205.26C173.467 205.638 173.373 206.079 173.373 206.583C173.373 207.087 173.467 207.528 173.656 207.906C173.854 208.284 174.124 208.581 174.466 208.797C174.817 209.004 175.213 209.108 175.654 209.108ZM187.191 209.931C186.579 209.931 186.098 209.783 185.747 209.486C185.396 209.189 185.22 208.653 185.22 207.879V204.194H184.059V203.235H185.22L185.369 201.629H186.354V203.235H188.325V204.194H186.354V207.879C186.354 208.302 186.44 208.59 186.611 208.743C186.782 208.887 187.083 208.959 187.515 208.959H188.217V209.931H187.191ZM190.495 212.901L192.155 209.283H191.764L189.104 203.235H190.333L192.547 208.446L194.896 203.235H196.07L191.683 212.901H190.495ZM197.267 212.901V203.235H198.293L198.401 204.342C198.617 204.018 198.923 203.726 199.319 203.465C199.724 203.204 200.237 203.073 200.858 203.073C201.524 203.073 202.105 203.226 202.6 203.532C203.095 203.838 203.477 204.257 203.747 204.788C204.026 205.319 204.166 205.922 204.166 206.597C204.166 207.272 204.026 207.875 203.747 208.406C203.477 208.928 203.09 209.342 202.586 209.648C202.091 209.945 201.511 210.093 200.845 210.093C200.296 210.093 199.805 209.981 199.373 209.756C198.95 209.531 198.626 209.216 198.401 208.811V212.901H197.267ZM200.723 209.108C201.173 209.108 201.569 209.004 201.911 208.797C202.253 208.581 202.523 208.284 202.721 207.906C202.919 207.528 203.018 207.087 203.018 206.583C203.018 206.079 202.919 205.638 202.721 205.26C202.523 204.882 202.253 204.59 201.911 204.383C201.569 204.167 201.173 204.059 200.723 204.059C200.273 204.059 199.877 204.167 199.535 204.383C199.193 204.59 198.923 204.882 198.725 205.26C198.527 205.638 198.428 206.079 198.428 206.583C198.428 207.087 198.527 207.528 198.725 207.906C198.923 208.284 199.193 208.581 199.535 208.797C199.877 209.004 200.273 209.108 200.723 209.108ZM208.755 210.093C208.116 210.093 207.549 209.949 207.054 209.661C206.559 209.364 206.167 208.955 205.879 208.433C205.6 207.911 205.461 207.294 205.461 206.583C205.461 205.881 205.6 205.269 205.879 204.747C206.158 204.216 206.545 203.807 207.04 203.519C207.544 203.222 208.125 203.073 208.782 203.073C209.43 203.073 209.988 203.222 210.456 203.519C210.933 203.807 211.297 204.189 211.549 204.666C211.801 205.143 211.927 205.656 211.927 206.205C211.927 206.304 211.923 206.403 211.914 206.502C211.914 206.601 211.914 206.714 211.914 206.84H206.581C206.608 207.353 206.725 207.78 206.932 208.122C207.148 208.455 207.414 208.707 207.729 208.878C208.053 209.049 208.395 209.135 208.755 209.135C209.223 209.135 209.614 209.027 209.929 208.811C210.244 208.595 210.474 208.302 210.618 207.933H211.738C211.558 208.554 211.212 209.072 210.699 209.486C210.195 209.891 209.547 210.093 208.755 210.093ZM208.755 204.032C208.215 204.032 207.733 204.198 207.31 204.531C206.896 204.855 206.658 205.332 206.595 205.962H210.807C210.78 205.359 210.573 204.887 210.186 204.545C209.799 204.203 209.322 204.032 208.755 204.032ZM215.995 210.093C215.194 210.093 214.528 209.891 213.997 209.486C213.466 209.081 213.156 208.532 213.066 207.839H214.227C214.299 208.19 214.483 208.496 214.78 208.757C215.086 209.009 215.496 209.135 216.009 209.135C216.486 209.135 216.837 209.036 217.062 208.838C217.287 208.631 217.399 208.388 217.399 208.109C217.399 207.704 217.251 207.434 216.954 207.299C216.666 207.164 216.256 207.042 215.725 206.934C215.365 206.862 215.005 206.759 214.645 206.624C214.285 206.489 213.984 206.3 213.741 206.057C213.498 205.805 213.376 205.476 213.376 205.071C213.376 204.486 213.592 204.009 214.024 203.64C214.465 203.262 215.059 203.073 215.806 203.073C216.517 203.073 217.098 203.253 217.548 203.613C218.007 203.964 218.272 204.468 218.344 205.125H217.224C217.179 204.783 217.03 204.518 216.778 204.329C216.535 204.131 216.207 204.032 215.793 204.032C215.388 204.032 215.073 204.117 214.848 204.288C214.632 204.459 214.524 204.684 214.524 204.963C214.524 205.233 214.663 205.445 214.942 205.598C215.23 205.751 215.617 205.881 216.103 205.989C216.517 206.079 216.909 206.192 217.278 206.327C217.656 206.453 217.962 206.646 218.196 206.907C218.439 207.159 218.56 207.528 218.56 208.014C218.569 208.617 218.34 209.117 217.872 209.513C217.413 209.9 216.787 210.093 215.995 210.093ZM223.191 210.093C222.552 210.093 221.985 209.949 221.49 209.661C220.995 209.364 220.603 208.955 220.315 208.433C220.036 207.911 219.897 207.294 219.897 206.583C219.897 205.881 220.036 205.269 220.315 204.747C220.594 204.216 220.981 203.807 221.476 203.519C221.98 203.222 222.561 203.073 223.218 203.073C223.866 203.073 224.424 203.222 224.892 203.519C225.369 203.807 225.733 204.189 225.985 204.666C226.237 205.143 226.363 205.656 226.363 206.205C226.363 206.304 226.359 206.403 226.35 206.502C226.35 206.601 226.35 206.714 226.35 206.84H221.017C221.044 207.353 221.161 207.78 221.368 208.122C221.584 208.455 221.85 208.707 222.165 208.878C222.489 209.049 222.831 209.135 223.191 209.135C223.659 209.135 224.05 209.027 224.365 208.811C224.68 208.595 224.91 208.302 225.054 207.933H226.174C225.994 208.554 225.648 209.072 225.135 209.486C224.631 209.891 223.983 210.093 223.191 210.093ZM223.191 204.032C222.651 204.032 222.169 204.198 221.746 204.531C221.332 204.855 221.094 205.332 221.031 205.962H225.243C225.216 205.359 225.009 204.887 224.622 204.545C224.235 204.203 223.758 204.032 223.191 204.032ZM230.288 209.931C229.676 209.931 229.195 209.783 228.844 209.486C228.493 209.189 228.317 208.653 228.317 207.879V204.194H227.156V203.235H228.317L228.466 201.629H229.451V203.235H231.422V204.194H229.451V207.879C229.451 208.302 229.537 208.59 229.708 208.743C229.879 208.887 230.18 208.959 230.612 208.959H231.314V209.931H230.288ZM235.509 209.931C234.897 209.931 234.416 209.783 234.065 209.486C233.714 209.189 233.538 208.653 233.538 207.879V204.194H232.377V203.235H233.538L233.687 201.629H234.672V203.235H236.643V204.194H234.672V207.879C234.672 208.302 234.758 208.59 234.929 208.743C235.1 208.887 235.401 208.959 235.833 208.959H236.535V209.931H235.509ZM238.772 201.75C238.547 201.75 238.358 201.678 238.205 201.534C238.061 201.381 237.989 201.192 237.989 200.967C237.989 200.751 238.061 200.571 238.205 200.427C238.358 200.283 238.547 200.211 238.772 200.211C238.988 200.211 239.173 200.283 239.326 200.427C239.479 200.571 239.555 200.751 239.555 200.967C239.555 201.192 239.479 201.381 239.326 201.534C239.173 201.678 238.988 201.75 238.772 201.75ZM238.205 209.931V203.235H239.339V209.931H238.205ZM241.314 209.931V203.235H242.34L242.407 204.437C242.623 204.014 242.934 203.681 243.339 203.438C243.744 203.195 244.203 203.073 244.716 203.073C245.508 203.073 246.138 203.316 246.606 203.802C247.083 204.279 247.321 205.017 247.321 206.016V209.931H246.187V206.138C246.187 204.743 245.611 204.045 244.459 204.045C243.883 204.045 243.402 204.257 243.015 204.68C242.637 205.094 242.448 205.688 242.448 206.462V209.931H241.314ZM251.685 207.825C251.307 207.825 250.961 207.776 250.646 207.677L249.971 208.311C250.07 208.383 250.191 208.446 250.335 208.5C250.488 208.545 250.704 208.59 250.983 208.635C251.262 208.671 251.654 208.712 252.158 208.757C253.058 208.82 253.701 209.027 254.088 209.378C254.475 209.729 254.669 210.188 254.669 210.755C254.669 211.142 254.561 211.511 254.345 211.862C254.138 212.213 253.814 212.501 253.373 212.726C252.941 212.951 252.383 213.063 251.699 213.063C251.096 213.063 250.56 212.982 250.092 212.82C249.624 212.667 249.26 212.429 248.999 212.105C248.738 211.79 248.607 211.389 248.607 210.903C248.607 210.651 248.675 210.377 248.81 210.08C248.945 209.792 249.197 209.517 249.566 209.256C249.368 209.175 249.197 209.09 249.053 209C248.918 208.901 248.792 208.793 248.675 208.676V208.365L249.822 207.231C249.291 206.781 249.026 206.187 249.026 205.449C249.026 205.008 249.129 204.608 249.336 204.248C249.543 203.888 249.845 203.604 250.241 203.397C250.637 203.181 251.118 203.073 251.685 203.073C252.072 203.073 252.423 203.127 252.738 203.235H255.209V204.086L253.953 204.14C254.214 204.518 254.345 204.954 254.345 205.449C254.345 205.89 254.237 206.291 254.021 206.651C253.814 207.011 253.512 207.299 253.116 207.515C252.729 207.722 252.252 207.825 251.685 207.825ZM251.685 206.894C252.162 206.894 252.54 206.772 252.819 206.529C253.107 206.277 253.251 205.917 253.251 205.449C253.251 204.99 253.107 204.639 252.819 204.396C252.54 204.144 252.162 204.018 251.685 204.018C251.199 204.018 250.812 204.144 250.524 204.396C250.245 204.639 250.106 204.99 250.106 205.449C250.106 205.917 250.245 206.277 250.524 206.529C250.812 206.772 251.199 206.894 251.685 206.894ZM249.714 210.795C249.714 211.245 249.903 211.578 250.281 211.794C250.659 212.019 251.132 212.132 251.699 212.132C252.257 212.132 252.702 212.01 253.035 211.767C253.377 211.524 253.548 211.2 253.548 210.795C253.548 210.507 253.431 210.255 253.197 210.039C252.963 209.832 252.531 209.711 251.901 209.675C251.406 209.639 250.979 209.594 250.619 209.54C250.25 209.738 250.007 209.949 249.89 210.174C249.773 210.408 249.714 210.615 249.714 210.795ZM260.749 201.75C260.524 201.75 260.335 201.678 260.182 201.534C260.038 201.381 259.966 201.192 259.966 200.967C259.966 200.751 260.038 200.571 260.182 200.427C260.335 200.283 260.524 200.211 260.749 200.211C260.965 200.211 261.15 200.283 261.303 200.427C261.456 200.571 261.532 200.751 261.532 200.967C261.532 201.192 261.456 201.381 261.303 201.534C261.15 201.678 260.965 201.75 260.749 201.75ZM260.182 209.931V203.235H261.316V209.931H260.182ZM263.291 209.931V203.235H264.317L264.384 204.437C264.6 204.014 264.911 203.681 265.316 203.438C265.721 203.195 266.18 203.073 266.693 203.073C267.485 203.073 268.115 203.316 268.583 203.802C269.06 204.279 269.298 205.017 269.298 206.016V209.931H268.164V206.138C268.164 204.743 267.588 204.045 266.436 204.045C265.86 204.045 265.379 204.257 264.992 204.68C264.614 205.094 264.425 205.688 264.425 206.462V209.931H263.291ZM274.054 210.093C273.388 210.093 272.803 209.94 272.299 209.634C271.804 209.328 271.417 208.91 271.138 208.379C270.868 207.848 270.733 207.245 270.733 206.57C270.733 205.895 270.872 205.296 271.151 204.774C271.43 204.243 271.817 203.829 272.312 203.532C272.807 203.226 273.392 203.073 274.067 203.073C274.616 203.073 275.102 203.186 275.525 203.411C275.948 203.636 276.277 203.951 276.511 204.356V200.211H277.645V209.931H276.619L276.511 208.824C276.295 209.148 275.984 209.441 275.579 209.702C275.174 209.963 274.666 210.093 274.054 210.093ZM274.175 209.108C274.625 209.108 275.021 209.004 275.363 208.797C275.714 208.581 275.984 208.284 276.173 207.906C276.371 207.528 276.47 207.087 276.47 206.583C276.47 206.079 276.371 205.638 276.173 205.26C275.984 204.882 275.714 204.59 275.363 204.383C275.021 204.167 274.625 204.059 274.175 204.059C273.734 204.059 273.338 204.167 272.987 204.383C272.645 204.59 272.375 204.882 272.177 205.26C271.988 205.638 271.894 206.079 271.894 206.583C271.894 207.087 271.988 207.528 272.177 207.906C272.375 208.284 272.645 208.581 272.987 208.797C273.338 209.004 273.734 209.108 274.175 209.108ZM281.937 210.093C281.145 210.093 280.515 209.855 280.047 209.378C279.579 208.892 279.345 208.149 279.345 207.15V203.235H280.479V207.029C280.479 208.424 281.05 209.121 282.193 209.121C282.778 209.121 283.26 208.914 283.638 208.5C284.025 208.077 284.218 207.479 284.218 206.705V203.235H285.352V209.931H284.326L284.245 208.73C284.038 209.153 283.728 209.486 283.314 209.729C282.909 209.972 282.45 210.093 281.937 210.093ZM289.784 210.093C288.983 210.093 288.317 209.891 287.786 209.486C287.255 209.081 286.945 208.532 286.855 207.839H288.016C288.088 208.19 288.272 208.496 288.569 208.757C288.875 209.009 289.285 209.135 289.798 209.135C290.275 209.135 290.626 209.036 290.851 208.838C291.076 208.631 291.188 208.388 291.188 208.109C291.188 207.704 291.04 207.434 290.743 207.299C290.455 207.164 290.045 207.042 289.514 206.934C289.154 206.862 288.794 206.759 288.434 206.624C288.074 206.489 287.773 206.3 287.53 206.057C287.287 205.805 287.165 205.476 287.165 205.071C287.165 204.486 287.381 204.009 287.813 203.64C288.254 203.262 288.848 203.073 289.595 203.073C290.306 203.073 290.887 203.253 291.337 203.613C291.796 203.964 292.061 204.468 292.133 205.125H291.013C290.968 204.783 290.819 204.518 290.567 204.329C290.324 204.131 289.996 204.032 289.582 204.032C289.177 204.032 288.862 204.117 288.637 204.288C288.421 204.459 288.313 204.684 288.313 204.963C288.313 205.233 288.452 205.445 288.731 205.598C289.019 205.751 289.406 205.881 289.892 205.989C290.306 206.079 290.698 206.192 291.067 206.327C291.445 206.453 291.751 206.646 291.985 206.907C292.228 207.159 292.349 207.528 292.349 208.014C292.358 208.617 292.129 209.117 291.661 209.513C291.202 209.9 290.576 210.093 289.784 210.093ZM296.312 209.931C295.7 209.931 295.218 209.783 294.867 209.486C294.516 209.189 294.341 208.653 294.341 207.879V204.194H293.18V203.235H294.341L294.489 201.629H295.475V203.235H297.446V204.194H295.475V207.879C295.475 208.302 295.56 208.59 295.731 208.743C295.902 208.887 296.204 208.959 296.636 208.959H297.338V209.931H296.312ZM298.887 209.931V203.235H299.913L300.007 204.518C300.214 204.077 300.529 203.726 300.952 203.465C301.375 203.204 301.897 203.073 302.518 203.073V204.261H302.208C301.812 204.261 301.447 204.333 301.114 204.477C300.781 204.612 300.516 204.846 300.318 205.179C300.12 205.512 300.021 205.971 300.021 206.556V209.931H298.887ZM304.52 212.901L306.18 209.283H305.789L303.129 203.235H304.358L306.572 208.446L308.921 203.235H310.095L305.708 212.901H304.52ZM310.721 209.999C310.496 209.999 310.307 209.927 310.154 209.783C310.01 209.63 309.938 209.445 309.938 209.229C309.938 209.013 310.01 208.833 310.154 208.689C310.307 208.536 310.496 208.46 310.721 208.46C310.937 208.46 311.117 208.536 311.261 208.689C311.414 208.833 311.491 209.013 311.491 209.229C311.491 209.445 311.414 209.63 311.261 209.783C311.117 209.927 310.937 209.999 310.721 209.999Z" fill="#747474"/>
<path d="M183.852 243.931V235.531H186.744C187.408 235.531 187.952 235.643 188.376 235.867C188.808 236.091 189.128 236.395 189.336 236.779C189.544 237.155 189.648 237.575 189.648 238.039C189.648 238.559 189.508 239.031 189.228 239.455C188.956 239.879 188.528 240.183 187.944 240.367L189.732 243.931H188.256L186.624 240.547H185.124V243.931H183.852ZM185.124 239.587H186.672C187.248 239.587 187.668 239.447 187.932 239.167C188.204 238.887 188.34 238.523 188.34 238.075C188.34 237.627 188.208 237.271 187.944 237.007C187.68 236.735 187.252 236.599 186.66 236.599H185.124V239.587ZM193.525 244.075C192.941 244.075 192.421 243.947 191.965 243.691C191.517 243.427 191.165 243.063 190.909 242.599C190.653 242.135 190.525 241.595 190.525 240.979C190.525 240.355 190.649 239.807 190.897 239.335C191.153 238.863 191.505 238.495 191.953 238.231C192.409 237.967 192.937 237.835 193.537 237.835C194.121 237.835 194.629 237.967 195.061 238.231C195.493 238.487 195.829 238.831 196.069 239.263C196.309 239.695 196.429 240.171 196.429 240.691C196.429 240.771 196.425 240.859 196.417 240.955C196.417 241.043 196.413 241.143 196.405 241.255H191.773C191.813 241.831 192.001 242.271 192.337 242.575C192.681 242.871 193.077 243.019 193.525 243.019C193.885 243.019 194.185 242.939 194.425 242.779C194.673 242.611 194.857 242.387 194.977 242.107H196.249C196.089 242.667 195.769 243.135 195.289 243.511C194.817 243.887 194.229 244.075 193.525 244.075ZM193.525 238.879C193.101 238.879 192.725 239.007 192.397 239.263C192.069 239.511 191.869 239.887 191.797 240.391H195.157C195.133 239.927 194.969 239.559 194.665 239.287C194.361 239.015 193.981 238.879 193.525 238.879ZM199.765 244.075C199.261 244.075 198.845 243.991 198.517 243.823C198.189 243.655 197.945 243.435 197.785 243.163C197.625 242.883 197.545 242.579 197.545 242.251C197.545 241.675 197.769 241.219 198.217 240.883C198.665 240.547 199.305 240.379 200.137 240.379H201.697V240.271C201.697 239.807 201.569 239.459 201.313 239.227C201.065 238.995 200.741 238.879 200.341 238.879C199.989 238.879 199.681 238.967 199.417 239.143C199.161 239.311 199.005 239.563 198.949 239.899H197.677C197.717 239.467 197.861 239.099 198.109 238.795C198.365 238.483 198.685 238.247 199.069 238.087C199.461 237.919 199.889 237.835 200.353 237.835C201.185 237.835 201.829 238.055 202.285 238.495C202.741 238.927 202.969 239.519 202.969 240.271V243.931H201.865L201.757 242.911C201.589 243.239 201.345 243.515 201.025 243.739C200.705 243.963 200.285 244.075 199.765 244.075ZM200.017 243.043C200.361 243.043 200.649 242.963 200.881 242.803C201.121 242.635 201.305 242.415 201.433 242.143C201.569 241.871 201.653 241.571 201.685 241.243H200.269C199.765 241.243 199.405 241.331 199.189 241.507C198.981 241.683 198.877 241.903 198.877 242.167C198.877 242.439 198.977 242.655 199.177 242.815C199.385 242.967 199.665 243.043 200.017 243.043ZM207.164 244.075C206.588 244.075 206.08 243.939 205.64 243.667C205.2 243.395 204.856 243.023 204.608 242.551C204.36 242.079 204.236 241.543 204.236 240.943C204.236 240.343 204.36 239.811 204.608 239.347C204.856 238.875 205.2 238.507 205.64 238.243C206.088 237.971 206.6 237.835 207.176 237.835C207.648 237.835 208.06 237.927 208.412 238.111C208.772 238.295 209.052 238.555 209.252 238.891V235.291H210.524V243.931H209.384L209.252 243.007C209.06 243.287 208.796 243.535 208.46 243.751C208.124 243.967 207.692 244.075 207.164 244.075ZM207.392 242.971C207.936 242.971 208.38 242.783 208.724 242.407C209.076 242.031 209.252 241.547 209.252 240.955C209.252 240.355 209.076 239.871 208.724 239.503C208.38 239.127 207.936 238.939 207.392 238.939C206.848 238.939 206.4 239.127 206.048 239.503C205.696 239.871 205.52 240.355 205.52 240.955C205.52 241.347 205.6 241.695 205.76 241.999C205.92 242.303 206.14 242.543 206.42 242.719C206.708 242.887 207.032 242.971 207.392 242.971ZM215.152 243.931V237.979H216.28L216.388 238.819C216.58 238.515 216.832 238.275 217.144 238.099C217.464 237.923 217.832 237.835 218.248 237.835C219.192 237.835 219.848 238.207 220.216 238.951C220.432 238.607 220.72 238.335 221.08 238.135C221.448 237.935 221.844 237.835 222.268 237.835C223.012 237.835 223.596 238.059 224.02 238.507C224.444 238.955 224.656 239.623 224.656 240.511V243.931H223.384V240.643C223.384 239.491 222.944 238.915 222.064 238.915C221.616 238.915 221.248 239.083 220.96 239.419C220.68 239.755 220.54 240.235 220.54 240.859V243.931H219.268V240.643C219.268 239.491 218.824 238.915 217.936 238.915C217.496 238.915 217.132 239.083 216.844 239.419C216.564 239.755 216.424 240.235 216.424 240.859V243.931H215.152ZM228.928 244.075C228.36 244.075 227.848 243.947 227.392 243.691C226.944 243.427 226.588 243.063 226.324 242.599C226.06 242.127 225.928 241.579 225.928 240.955C225.928 240.331 226.06 239.787 226.324 239.323C226.596 238.851 226.96 238.487 227.416 238.231C227.872 237.967 228.38 237.835 228.94 237.835C229.508 237.835 230.016 237.967 230.464 238.231C230.92 238.487 231.28 238.851 231.544 239.323C231.816 239.787 231.952 240.331 231.952 240.955C231.952 241.579 231.816 242.127 231.544 242.599C231.28 243.063 230.92 243.427 230.464 243.691C230.008 243.947 229.496 244.075 228.928 244.075ZM228.928 242.983C229.232 242.983 229.512 242.907 229.768 242.755C230.032 242.603 230.244 242.379 230.404 242.083C230.564 241.779 230.644 241.403 230.644 240.955C230.644 240.507 230.564 240.135 230.404 239.839C230.252 239.535 230.044 239.307 229.78 239.155C229.524 239.003 229.244 238.927 228.94 238.927C228.636 238.927 228.352 239.003 228.088 239.155C227.832 239.307 227.624 239.535 227.464 239.839C227.304 240.135 227.224 240.507 227.224 240.955C227.224 241.403 227.304 241.779 227.464 242.083C227.624 242.379 227.832 242.603 228.088 242.755C228.344 242.907 228.624 242.983 228.928 242.983ZM233.327 243.931V237.979H234.467L234.575 239.107C234.783 238.715 235.071 238.407 235.439 238.183C235.815 237.951 236.267 237.835 236.795 237.835V239.167H236.447C236.095 239.167 235.779 239.227 235.499 239.347C235.227 239.459 235.007 239.655 234.839 239.935C234.679 240.207 234.599 240.587 234.599 241.075V243.931H233.327ZM240.506 244.075C239.922 244.075 239.402 243.947 238.946 243.691C238.498 243.427 238.146 243.063 237.89 242.599C237.634 242.135 237.506 241.595 237.506 240.979C237.506 240.355 237.63 239.807 237.878 239.335C238.134 238.863 238.486 238.495 238.934 238.231C239.39 237.967 239.918 237.835 240.518 237.835C241.102 237.835 241.61 237.967 242.042 238.231C242.474 238.487 242.81 238.831 243.05 239.263C243.29 239.695 243.41 240.171 243.41 240.691C243.41 240.771 243.406 240.859 243.398 240.955C243.398 241.043 243.394 241.143 243.386 241.255H238.754C238.794 241.831 238.982 242.271 239.318 242.575C239.662 242.871 240.058 243.019 240.506 243.019C240.866 243.019 241.166 242.939 241.406 242.779C241.654 242.611 241.838 242.387 241.958 242.107H243.23C243.07 242.667 242.75 243.135 242.27 243.511C241.798 243.887 241.21 244.075 240.506 244.075ZM240.506 238.879C240.082 238.879 239.706 239.007 239.378 239.263C239.05 239.511 238.85 239.887 238.778 240.391H242.138C242.114 239.927 241.95 239.559 241.646 239.287C241.342 239.015 240.962 238.879 240.506 238.879Z" fill="#FD695A"/>
<path d="M183 245.431H243.926V246.031H183V245.431Z" fill="#FD695A"/>
<circle cx="219.972" cy="75.5116" r="35.5193" fill="#BC5C56" fill-opacity="0.06"/>
<path d="M239.941 75.0181C239.94 74.6124 239.73 74.236 239.384 74.0231L235.319 71.5171L239.389 68.9842C239.732 68.7707 239.941 68.3953 239.941 67.9911C239.942 67.5869 239.734 67.2109 239.392 66.9963L220.564 55.1995C220.183 54.961 219.7 54.961 219.319 55.1995L200.491 66.9963C200.149 67.2109 199.941 67.5869 199.941 67.9911C199.942 68.3953 200.151 68.7707 200.494 68.9842L204.536 71.4997L200.492 74.027C200.149 74.2413 199.941 74.6173 199.941 75.0218C199.942 75.4263 200.151 75.8019 200.494 76.0156L204.536 78.5311L200.492 81.0582C200.15 81.2722 199.942 81.6475 199.941 82.0513C199.941 82.4551 200.149 82.8306 200.491 83.045L219.319 94.8418C219.509 94.961 219.725 95.0206 219.941 95.0206C220.157 95.0206 220.373 94.961 220.564 94.8418L239.392 83.045C239.735 82.8299 239.943 82.4527 239.941 82.0476C239.94 81.6426 239.729 81.2669 239.384 81.0544L235.319 78.5484L239.389 76.0155C239.733 75.8012 239.942 75.4238 239.941 75.0181ZM203.326 67.9862L219.941 57.5755L236.557 67.9862C236.397 68.0856 220.418 78.0315 219.941 78.3279L203.326 67.9862ZM236.549 82.0601L219.941 92.4659L203.322 82.0532L206.751 79.9101L219.322 87.7343C219.512 87.8523 219.727 87.9113 219.941 87.9113C220.156 87.9113 220.371 87.8523 220.561 87.7343L233.097 79.9317L236.549 82.0601ZM219.941 85.3591L203.328 75.0187L206.751 72.8789L219.322 80.7031C219.512 80.8211 219.727 80.8801 219.941 80.8801C220.156 80.8801 220.371 80.8211 220.561 80.7031L233.097 72.9005L236.544 75.0255C236.449 75.0848 220.381 85.0853 219.941 85.3591Z" fill="#FD695A" stroke="#FD695A" stroke-width="0.5"/>
<defs>
<filter id="filter0_d_2_214" x="67.9999" y="0.931274" width="292.932" height="292.932" filterUnits="userSpaceOnUse" color-interpolation-filters="sRGB">
<feFlood flood-opacity="0" result="BackgroundImageFix"/>
<feColorMatrix in="SourceAlpha" type="matrix" values="0 0 0 0 0 0 0 0 0 0 0 0 0 0 0 0 0 0 127 0" result="hardAlpha"/>
<feOffset dy="6"/>
<feGaussianBlur stdDeviation="6"/>
<feColorMatrix type="matrix" values="0 0 0 0 0.172549 0 0 0 0 0.0862745 0 0 0 0 0.329412 0 0 0 0.01 0"/>
<feBlend mode="normal" in2="BackgroundImageFix" result="effect1_dropShadow_2_214"/>
<feBlend mode="normal" in="SourceGraphic" in2="effect1_dropShadow_2_214" result="shape"/>
</filter>
<filter id="filter1_d_2_214" x="-6.10352e-05" y="215.931" width="428.932" height="170.141" filterUnits="userSpaceOnUse" color-interpolation-filters="sRGB">
<feFlood flood-opacity="0" result="BackgroundImageFix"/>
<feColorMatrix in="SourceAlpha" type="matrix" values="0 0 0 0 0 0 0 0 0 0 0 0 0 0 0 0 0 0 127 0" result="hardAlpha"/>
<feOffset dy="30"/>
<feGaussianBlur stdDeviation="40"/>
<feColorMatrix type="matrix" values="0 0 0 0 0.172549 0 0 0 0 0.0862745 0 0 0 0 0.329412 0 0 0 0.07 0"/>
<feBlend mode="normal" in2="BackgroundImageFix" result="effect1_dropShadow_2_214"/>
<feBlend mode="normal" in="SourceGraphic" in2="effect1_dropShadow_2_214" result="shape"/>
</filter>
</defs>
</svg>
