<svg width="293" height="293" viewBox="0 0 293 293" fill="none" xmlns="http://www.w3.org/2000/svg">
<g filter="url(#filter0_d_2_199)">
<rect x="11.9999" y="5.99963" width="268.932" height="268.932" rx="15" fill="white"/>
</g>
<path d="M66.5399 134.691H71.7799C74.1133 134.691 75.9199 135.311 77.1999 136.551C78.4933 137.791 79.1399 139.538 79.1399 141.791C79.1399 144.058 78.4933 145.818 77.1999 147.071C75.9199 148.311 74.1133 148.931 71.7799 148.931H66.5399V134.691ZM71.6199 146.831C74.8999 146.831 76.5399 145.151 76.5399 141.791C76.5399 138.458 74.8999 136.791 71.6199 136.791H69.1199V146.831H71.6199ZM81.5943 138.831H84.0743V148.931H81.5943V138.831ZM84.2143 134.251V136.711H81.4343V134.251H84.2143ZM96.5692 138.831V148.611C96.5692 150.185 96.1358 151.378 95.2692 152.191C94.4025 153.005 93.1292 153.411 91.4492 153.411C89.8892 153.411 88.5158 153.085 87.3292 152.431L87.7292 150.531C88.9558 151.171 90.1758 151.491 91.3892 151.491C93.1892 151.491 94.0892 150.598 94.0892 148.811V146.811C93.7825 147.358 93.3358 147.805 92.7492 148.151C92.1625 148.485 91.5025 148.651 90.7692 148.651C89.8892 148.651 89.1025 148.445 88.4092 148.031C87.7292 147.605 87.1958 147.011 86.8092 146.251C86.4358 145.478 86.2492 144.598 86.2492 143.611C86.2492 142.625 86.4358 141.751 86.8092 140.991C87.1958 140.218 87.7292 139.625 88.4092 139.211C89.1025 138.785 89.8892 138.571 90.7692 138.571C91.5158 138.571 92.1758 138.731 92.7492 139.051C93.3358 139.358 93.7825 139.791 94.0892 140.351V138.831H96.5692ZM91.4292 146.691C92.2558 146.691 92.9025 146.418 93.3692 145.871C93.8492 145.325 94.0892 144.571 94.0892 143.611C94.0892 142.651 93.8558 141.898 93.3892 141.351C92.9225 140.805 92.2692 140.531 91.4292 140.531C90.6025 140.531 89.9492 140.805 89.4692 141.351C89.0025 141.898 88.7692 142.651 88.7692 143.611C88.7692 144.571 89.0025 145.325 89.4692 145.871C89.9492 146.418 90.6025 146.691 91.4292 146.691ZM99.2701 138.831H101.75V148.931H99.2701V138.831ZM101.89 134.251V136.711H99.1101V134.251H101.89ZM107.665 140.711V145.231C107.665 146.418 108.218 147.011 109.325 147.011C109.632 147.011 109.965 146.958 110.325 146.851V148.831C109.885 148.991 109.352 149.071 108.725 149.071C107.578 149.071 106.698 148.751 106.085 148.111C105.472 147.471 105.165 146.551 105.165 145.351V140.711H103.225V138.831H105.165V136.371L107.665 135.531V138.831H110.345V140.711H107.665ZM121.723 138.831V148.931H119.263V147.311C118.956 147.871 118.516 148.311 117.943 148.631C117.37 148.938 116.716 149.091 115.983 149.091C115.103 149.091 114.323 148.878 113.643 148.451C112.963 148.025 112.436 147.418 112.063 146.631C111.69 145.845 111.503 144.931 111.503 143.891C111.503 142.851 111.69 141.931 112.063 141.131C112.45 140.318 112.983 139.691 113.663 139.251C114.343 138.798 115.116 138.571 115.983 138.571C116.716 138.571 117.37 138.731 117.943 139.051C118.516 139.358 118.956 139.791 119.263 140.351V138.831H121.723ZM116.663 147.131C117.49 147.131 118.13 146.845 118.583 146.271C119.036 145.698 119.263 144.891 119.263 143.851C119.263 142.785 119.036 141.965 118.583 141.391C118.13 140.818 117.483 140.531 116.643 140.531C115.816 140.531 115.17 140.831 114.703 141.431C114.25 142.018 114.023 142.838 114.023 143.891C114.023 144.931 114.25 145.731 114.703 146.291C115.17 146.851 115.823 147.131 116.663 147.131ZM124.446 134.211H126.926V148.931H124.446V134.211ZM149.209 134.691V148.931H146.929V140.091L143.149 148.931H141.449L137.649 140.191V148.931H135.369V134.691H137.409L142.309 145.831L147.169 134.691H149.209ZM161.801 138.831V148.931H159.341V147.311C159.035 147.871 158.595 148.311 158.021 148.631C157.448 148.938 156.795 149.091 156.061 149.091C155.181 149.091 154.401 148.878 153.721 148.451C153.041 148.025 152.515 147.418 152.141 146.631C151.768 145.845 151.581 144.931 151.581 143.891C151.581 142.851 151.768 141.931 152.141 141.131C152.528 140.318 153.061 139.691 153.741 139.251C154.421 138.798 155.195 138.571 156.061 138.571C156.795 138.571 157.448 138.731 158.021 139.051C158.595 139.358 159.035 139.791 159.341 140.351V138.831H161.801ZM156.741 147.131C157.568 147.131 158.208 146.845 158.661 146.271C159.115 145.698 159.341 144.891 159.341 143.851C159.341 142.785 159.115 141.965 158.661 141.391C158.208 140.818 157.561 140.531 156.721 140.531C155.895 140.531 155.248 140.831 154.781 141.431C154.328 142.018 154.101 142.838 154.101 143.891C154.101 144.931 154.328 145.731 154.781 146.291C155.248 146.851 155.901 147.131 156.741 147.131ZM169.964 138.591C170.351 138.591 170.684 138.645 170.964 138.751L170.944 141.031C170.517 140.858 170.077 140.771 169.624 140.771C168.771 140.771 168.117 141.018 167.664 141.511C167.224 142.005 167.004 142.658 167.004 143.471V148.931H164.524V141.691C164.524 140.625 164.471 139.671 164.364 138.831H166.704L166.904 140.611C167.157 139.958 167.557 139.458 168.104 139.111C168.651 138.765 169.271 138.591 169.964 138.591ZM179.256 148.931L174.836 144.271V148.931H172.356V134.211H174.836V143.291L178.996 138.851H182.016L177.476 143.671L182.376 148.931H179.256ZM192.075 144.011H185.115C185.168 145.091 185.435 145.891 185.915 146.411C186.408 146.918 187.135 147.171 188.095 147.171C189.202 147.171 190.228 146.811 191.175 146.091L191.895 147.811C191.415 148.198 190.822 148.511 190.115 148.751C189.422 148.978 188.715 149.091 187.995 149.091C186.342 149.091 185.042 148.625 184.095 147.691C183.148 146.758 182.675 145.478 182.675 143.851C182.675 142.825 182.882 141.911 183.295 141.111C183.708 140.311 184.288 139.691 185.035 139.251C185.782 138.798 186.628 138.571 187.575 138.571C188.962 138.571 190.055 139.025 190.855 139.931C191.668 140.825 192.075 142.058 192.075 143.631V144.011ZM187.635 140.371C186.968 140.371 186.422 140.571 185.995 140.971C185.582 141.358 185.315 141.925 185.195 142.671H189.895C189.815 141.911 189.582 141.338 189.195 140.951C188.822 140.565 188.302 140.371 187.635 140.371ZM197.235 140.711V145.231C197.235 146.418 197.789 147.011 198.895 147.011C199.202 147.011 199.535 146.958 199.895 146.851V148.831C199.455 148.991 198.922 149.071 198.295 149.071C197.149 149.071 196.269 148.751 195.655 148.111C195.042 147.471 194.735 146.551 194.735 145.351V140.711H192.795V138.831H194.735V136.371L197.235 135.531V138.831H199.915V140.711H197.235ZM201.633 138.831H204.113V148.931H201.633V138.831ZM204.253 134.251V136.711H201.473V134.251H204.253ZM212.628 138.571C215.042 138.571 216.248 139.958 216.248 142.731V148.931H213.748V142.851C213.748 142.051 213.595 141.471 213.288 141.111C212.982 140.738 212.508 140.551 211.868 140.551C211.108 140.551 210.495 140.798 210.028 141.291C209.562 141.771 209.328 142.411 209.328 143.211V148.931H206.848V141.691C206.848 140.625 206.795 139.671 206.688 138.831H209.028L209.208 140.491C209.555 139.878 210.022 139.405 210.608 139.071C211.208 138.738 211.882 138.571 212.628 138.571ZM228.659 138.831V148.611C228.659 150.185 228.226 151.378 227.359 152.191C226.492 153.005 225.219 153.411 223.539 153.411C221.979 153.411 220.606 153.085 219.419 152.431L219.819 150.531C221.046 151.171 222.266 151.491 223.479 151.491C225.279 151.491 226.179 150.598 226.179 148.811V146.811C225.872 147.358 225.426 147.805 224.839 148.151C224.252 148.485 223.592 148.651 222.859 148.651C221.979 148.651 221.192 148.445 220.499 148.031C219.819 147.605 219.286 147.011 218.899 146.251C218.526 145.478 218.339 144.598 218.339 143.611C218.339 142.625 218.526 141.751 218.899 140.991C219.286 140.218 219.819 139.625 220.499 139.211C221.192 138.785 221.979 138.571 222.859 138.571C223.606 138.571 224.266 138.731 224.839 139.051C225.426 139.358 225.872 139.791 226.179 140.351V138.831H228.659ZM223.519 146.691C224.346 146.691 224.992 146.418 225.459 145.871C225.939 145.325 226.179 144.571 226.179 143.611C226.179 142.651 225.946 141.898 225.479 141.351C225.012 140.805 224.359 140.531 223.519 140.531C222.692 140.531 222.039 140.805 221.559 141.351C221.092 141.898 220.859 142.651 220.859 143.611C220.859 144.571 221.092 145.325 221.559 145.871C222.039 146.418 222.692 146.691 223.519 146.691Z" fill="#37383D"/>
<path d="M40.2129 182.931V174.413H37.3914V173.481H44.1684V174.413H41.3469V182.931H40.2129ZM45.4856 182.931V173.211H46.6196V177.383C46.8446 176.969 47.1641 176.649 47.5781 176.424C47.9921 176.19 48.4421 176.073 48.9281 176.073C49.7021 176.073 50.3231 176.316 50.7911 176.802C51.2591 177.279 51.4931 178.017 51.4931 179.016V182.931H50.3726V179.138C50.3726 177.743 49.8101 177.045 48.6851 177.045C48.1001 177.045 47.6096 177.257 47.2136 177.68C46.8176 178.094 46.6196 178.688 46.6196 179.462V182.931H45.4856ZM55.4387 183.093C54.8807 183.093 54.4172 182.999 54.0482 182.81C53.6792 182.621 53.4047 182.369 53.2247 182.054C53.0447 181.739 52.9547 181.397 52.9547 181.028C52.9547 180.344 53.2157 179.817 53.7377 179.448C54.2597 179.079 54.9707 178.895 55.8707 178.895H57.6797V178.814C57.6797 178.229 57.5267 177.788 57.2207 177.491C56.9147 177.185 56.5052 177.032 55.9922 177.032C55.5512 177.032 55.1687 177.144 54.8447 177.369C54.5297 177.585 54.3317 177.905 54.2507 178.328H53.0897C53.1347 177.842 53.2967 177.432 53.5757 177.099C53.8637 176.766 54.2192 176.514 54.6422 176.343C55.0652 176.163 55.5152 176.073 55.9922 176.073C56.9282 176.073 57.6302 176.325 58.0982 176.829C58.5752 177.324 58.8137 177.986 58.8137 178.814V182.931H57.8012L57.7337 181.73C57.5447 182.108 57.2657 182.432 56.8967 182.702C56.5367 182.963 56.0507 183.093 55.4387 183.093ZM55.6142 182.135C56.0462 182.135 56.4152 182.022 56.7212 181.797C57.0362 181.572 57.2747 181.28 57.4367 180.92C57.5987 180.56 57.6797 180.182 57.6797 179.786V179.772H55.9652C55.2992 179.772 54.8267 179.889 54.5477 180.123C54.2777 180.348 54.1427 180.632 54.1427 180.974C54.1427 181.325 54.2687 181.608 54.5207 181.824C54.7817 182.031 55.1462 182.135 55.6142 182.135ZM62.9764 182.931C62.3644 182.931 61.8829 182.783 61.5319 182.486C61.1809 182.189 61.0054 181.653 61.0054 180.879V177.194H59.8444V176.235H61.0054L61.1539 174.629H62.1394V176.235H64.1104V177.194H62.1394V180.879C62.1394 181.302 62.2249 181.59 62.3959 181.743C62.5669 181.887 62.8684 181.959 63.3004 181.959H64.0024V182.931H62.9764ZM69.8123 174.75C69.5873 174.75 69.3983 174.678 69.2453 174.534C69.1013 174.381 69.0293 174.192 69.0293 173.967C69.0293 173.751 69.1013 173.571 69.2453 173.427C69.3983 173.283 69.5873 173.211 69.8123 173.211C70.0283 173.211 70.2128 173.283 70.3658 173.427C70.5188 173.571 70.5953 173.751 70.5953 173.967C70.5953 174.192 70.5188 174.381 70.3658 174.534C70.2128 174.678 70.0283 174.75 69.8123 174.75ZM69.2453 182.931V176.235H70.3793V182.931H69.2453ZM74.9188 183.093C74.1178 183.093 73.4518 182.891 72.9208 182.486C72.3898 182.081 72.0793 181.532 71.9893 180.839H73.1503C73.2223 181.19 73.4068 181.496 73.7038 181.757C74.0098 182.009 74.4193 182.135 74.9323 182.135C75.4093 182.135 75.7603 182.036 75.9853 181.838C76.2103 181.631 76.3228 181.388 76.3228 181.109C76.3228 180.704 76.1743 180.434 75.8773 180.299C75.5893 180.164 75.1798 180.042 74.6488 179.934C74.2888 179.862 73.9288 179.759 73.5688 179.624C73.2088 179.489 72.9073 179.3 72.6643 179.057C72.4213 178.805 72.2998 178.476 72.2998 178.071C72.2998 177.486 72.5158 177.009 72.9478 176.64C73.3888 176.262 73.9828 176.073 74.7298 176.073C75.4408 176.073 76.0213 176.253 76.4713 176.613C76.9303 176.964 77.1958 177.468 77.2678 178.125H76.1473C76.1023 177.783 75.9538 177.518 75.7018 177.329C75.4588 177.131 75.1303 177.032 74.7163 177.032C74.3113 177.032 73.9963 177.117 73.7713 177.288C73.5553 177.459 73.4473 177.684 73.4473 177.963C73.4473 178.233 73.5868 178.445 73.8658 178.598C74.1538 178.751 74.5408 178.881 75.0268 178.989C75.4408 179.079 75.8323 179.192 76.2013 179.327C76.5793 179.453 76.8853 179.646 77.1193 179.907C77.3623 180.159 77.4838 180.528 77.4838 181.014C77.4928 181.617 77.2633 182.117 76.7953 182.513C76.3363 182.9 75.7108 183.093 74.9188 183.093ZM85.3226 182.931C84.7106 182.931 84.2291 182.783 83.8781 182.486C83.5271 182.189 83.3516 181.653 83.3516 180.879V177.194H82.1906V176.235H83.3516L83.5001 174.629H84.4856V176.235H86.4566V177.194H84.4856V180.879C84.4856 181.302 84.5711 181.59 84.7421 181.743C84.9131 181.887 85.2146 181.959 85.6466 181.959H86.3486V182.931H85.3226ZM87.8973 182.931V173.211H89.0313V177.383C89.2563 176.969 89.5758 176.649 89.9898 176.424C90.4038 176.19 90.8538 176.073 91.3398 176.073C92.1138 176.073 92.7348 176.316 93.2028 176.802C93.6708 177.279 93.9048 178.017 93.9048 179.016V182.931H92.7843V179.138C92.7843 177.743 92.2218 177.045 91.0968 177.045C90.5118 177.045 90.0213 177.257 89.6253 177.68C89.2293 178.094 89.0313 178.688 89.0313 179.462V182.931H87.8973ZM98.6333 183.093C97.9943 183.093 97.4273 182.949 96.9323 182.661C96.4373 182.364 96.0458 181.955 95.7578 181.433C95.4788 180.911 95.3393 180.294 95.3393 179.583C95.3393 178.881 95.4788 178.269 95.7578 177.747C96.0368 177.216 96.4238 176.807 96.9188 176.519C97.4228 176.222 98.0033 176.073 98.6603 176.073C99.3083 176.073 99.8663 176.222 100.334 176.519C100.811 176.807 101.176 177.189 101.428 177.666C101.68 178.143 101.806 178.656 101.806 179.205C101.806 179.304 101.801 179.403 101.792 179.502C101.792 179.601 101.792 179.714 101.792 179.84H96.4598C96.4868 180.353 96.6038 180.78 96.8108 181.122C97.0268 181.455 97.2923 181.707 97.6073 181.878C97.9313 182.049 98.2733 182.135 98.6333 182.135C99.1013 182.135 99.4928 182.027 99.8078 181.811C100.123 181.595 100.352 181.302 100.496 180.933H101.617C101.437 181.554 101.09 182.072 100.577 182.486C100.073 182.891 99.4253 183.093 98.6333 183.093ZM98.6333 177.032C98.0933 177.032 97.6118 177.198 97.1888 177.531C96.7748 177.855 96.5363 178.332 96.4733 178.962H100.685C100.658 178.359 100.451 177.887 100.064 177.545C99.6773 177.203 99.2003 177.032 98.6333 177.032ZM109.447 183.093C108.646 183.093 107.98 182.891 107.449 182.486C106.918 182.081 106.607 181.532 106.517 180.839H107.678C107.75 181.19 107.935 181.496 108.232 181.757C108.538 182.009 108.947 182.135 109.46 182.135C109.937 182.135 110.288 182.036 110.513 181.838C110.738 181.631 110.851 181.388 110.851 181.109C110.851 180.704 110.702 180.434 110.405 180.299C110.117 180.164 109.708 180.042 109.177 179.934C108.817 179.862 108.457 179.759 108.097 179.624C107.737 179.489 107.435 179.3 107.192 179.057C106.949 178.805 106.828 178.476 106.828 178.071C106.828 177.486 107.044 177.009 107.476 176.64C107.917 176.262 108.511 176.073 109.258 176.073C109.969 176.073 110.549 176.253 110.999 176.613C111.458 176.964 111.724 177.468 111.796 178.125H110.675C110.63 177.783 110.482 177.518 110.23 177.329C109.987 177.131 109.658 177.032 109.244 177.032C108.839 177.032 108.524 177.117 108.299 177.288C108.083 177.459 107.975 177.684 107.975 177.963C107.975 178.233 108.115 178.445 108.394 178.598C108.682 178.751 109.069 178.881 109.555 178.989C109.969 179.079 110.36 179.192 110.729 179.327C111.107 179.453 111.413 179.646 111.647 179.907C111.89 180.159 112.012 180.528 112.012 181.014C112.021 181.617 111.791 182.117 111.323 182.513C110.864 182.9 110.239 183.093 109.447 183.093ZM114.32 174.75C114.095 174.75 113.906 174.678 113.753 174.534C113.609 174.381 113.537 174.192 113.537 173.967C113.537 173.751 113.609 173.571 113.753 173.427C113.906 173.283 114.095 173.211 114.32 173.211C114.536 173.211 114.721 173.283 114.874 173.427C115.027 173.571 115.103 173.751 115.103 173.967C115.103 174.192 115.027 174.381 114.874 174.534C114.721 174.678 114.536 174.75 114.32 174.75ZM113.753 182.931V176.235H114.887V182.931H113.753ZM116.862 182.931V176.235H117.888L117.969 177.207C118.185 176.847 118.473 176.568 118.833 176.37C119.193 176.172 119.598 176.073 120.048 176.073C120.579 176.073 121.033 176.181 121.411 176.397C121.798 176.613 122.095 176.942 122.302 177.383C122.536 176.978 122.856 176.658 123.261 176.424C123.675 176.19 124.12 176.073 124.597 176.073C125.398 176.073 126.037 176.316 126.514 176.802C126.991 177.279 127.23 178.017 127.23 179.016V182.931H126.109V179.138C126.109 178.445 125.97 177.923 125.691 177.572C125.412 177.221 125.011 177.045 124.489 177.045C123.949 177.045 123.499 177.257 123.139 177.68C122.788 178.094 122.613 178.688 122.613 179.462V182.931H121.479V179.138C121.479 178.445 121.339 177.923 121.06 177.572C120.781 177.221 120.381 177.045 119.859 177.045C119.328 177.045 118.882 177.257 118.522 177.68C118.171 178.094 117.996 178.688 117.996 179.462V182.931H116.862ZM128.938 185.901V176.235H129.964L130.072 177.342C130.288 177.018 130.594 176.726 130.99 176.465C131.395 176.204 131.908 176.073 132.529 176.073C133.195 176.073 133.775 176.226 134.27 176.532C134.765 176.838 135.148 177.257 135.418 177.788C135.697 178.319 135.836 178.922 135.836 179.597C135.836 180.272 135.697 180.875 135.418 181.406C135.148 181.928 134.761 182.342 134.257 182.648C133.762 182.945 133.181 183.093 132.515 183.093C131.966 183.093 131.476 182.981 131.044 182.756C130.621 182.531 130.297 182.216 130.072 181.811V185.901H128.938ZM132.394 182.108C132.844 182.108 133.24 182.004 133.582 181.797C133.924 181.581 134.194 181.284 134.392 180.906C134.59 180.528 134.689 180.087 134.689 179.583C134.689 179.079 134.59 178.638 134.392 178.26C134.194 177.882 133.924 177.59 133.582 177.383C133.24 177.167 132.844 177.059 132.394 177.059C131.944 177.059 131.548 177.167 131.206 177.383C130.864 177.59 130.594 177.882 130.396 178.26C130.198 178.638 130.099 179.079 130.099 179.583C130.099 180.087 130.198 180.528 130.396 180.906C130.594 181.284 130.864 181.581 131.206 181.797C131.548 182.004 131.944 182.108 132.394 182.108ZM137.415 182.931V173.211H138.549V182.931H137.415ZM141.137 185.901L142.797 182.283H142.406L139.746 176.235H140.975L143.189 181.446L145.538 176.235H146.712L142.325 185.901H141.137ZM154.519 183.093C153.853 183.093 153.268 182.94 152.764 182.634C152.269 182.328 151.882 181.91 151.603 181.379C151.333 180.848 151.198 180.245 151.198 179.57C151.198 178.895 151.338 178.296 151.617 177.774C151.896 177.243 152.283 176.829 152.778 176.532C153.273 176.226 153.858 176.073 154.533 176.073C155.082 176.073 155.568 176.186 155.991 176.411C156.414 176.636 156.742 176.951 156.976 177.356V173.211H158.11V182.931H157.084L156.976 181.824C156.76 182.148 156.45 182.441 156.045 182.702C155.64 182.963 155.131 183.093 154.519 183.093ZM154.641 182.108C155.091 182.108 155.487 182.004 155.829 181.797C156.18 181.581 156.45 181.284 156.639 180.906C156.837 180.528 156.936 180.087 156.936 179.583C156.936 179.079 156.837 178.638 156.639 178.26C156.45 177.882 156.18 177.59 155.829 177.383C155.487 177.167 155.091 177.059 154.641 177.059C154.2 177.059 153.804 177.167 153.453 177.383C153.111 177.59 152.841 177.882 152.643 178.26C152.454 178.638 152.359 179.079 152.359 179.583C152.359 180.087 152.454 180.528 152.643 180.906C152.841 181.284 153.111 181.581 153.453 181.797C153.804 182.004 154.2 182.108 154.641 182.108ZM162.402 183.093C161.61 183.093 160.98 182.855 160.512 182.378C160.044 181.892 159.81 181.149 159.81 180.15V176.235H160.944V180.029C160.944 181.424 161.516 182.121 162.659 182.121C163.244 182.121 163.725 181.914 164.103 181.5C164.49 181.077 164.684 180.479 164.684 179.705V176.235H165.818V182.931H164.792L164.711 181.73C164.504 182.153 164.193 182.486 163.779 182.729C163.374 182.972 162.915 183.093 162.402 183.093ZM167.684 182.931V176.235H168.71L168.791 177.207C169.007 176.847 169.295 176.568 169.655 176.37C170.015 176.172 170.42 176.073 170.87 176.073C171.401 176.073 171.856 176.181 172.234 176.397C172.621 176.613 172.918 176.942 173.125 177.383C173.359 176.978 173.678 176.658 174.083 176.424C174.497 176.19 174.943 176.073 175.42 176.073C176.221 176.073 176.86 176.316 177.337 176.802C177.814 177.279 178.052 178.017 178.052 179.016V182.931H176.932V179.138C176.932 178.445 176.792 177.923 176.513 177.572C176.234 177.221 175.834 177.045 175.312 177.045C174.772 177.045 174.322 177.257 173.962 177.68C173.611 178.094 173.435 178.688 173.435 179.462V182.931H172.301V179.138C172.301 178.445 172.162 177.923 171.883 177.572C171.604 177.221 171.203 177.045 170.681 177.045C170.15 177.045 169.705 177.257 169.345 177.68C168.994 178.094 168.818 178.688 168.818 179.462V182.931H167.684ZM179.761 182.931V176.235H180.787L180.868 177.207C181.084 176.847 181.372 176.568 181.732 176.37C182.092 176.172 182.497 176.073 182.947 176.073C183.478 176.073 183.932 176.181 184.31 176.397C184.697 176.613 184.994 176.942 185.201 177.383C185.435 176.978 185.755 176.658 186.16 176.424C186.574 176.19 187.019 176.073 187.496 176.073C188.297 176.073 188.936 176.316 189.413 176.802C189.89 177.279 190.129 178.017 190.129 179.016V182.931H189.008V179.138C189.008 178.445 188.869 177.923 188.59 177.572C188.311 177.221 187.91 177.045 187.388 177.045C186.848 177.045 186.398 177.257 186.038 177.68C185.687 178.094 185.512 178.688 185.512 179.462V182.931H184.378V179.138C184.378 178.445 184.238 177.923 183.959 177.572C183.68 177.221 183.28 177.045 182.758 177.045C182.227 177.045 181.781 177.257 181.421 177.68C181.07 178.094 180.895 178.688 180.895 179.462V182.931H179.761ZM192.368 185.901L194.028 182.283H193.637L190.977 176.235H192.206L194.42 181.446L196.769 176.235H197.943L193.556 185.901H192.368ZM205.359 182.931C204.747 182.931 204.266 182.783 203.915 182.486C203.564 182.189 203.388 181.653 203.388 180.879V177.194H202.227V176.235H203.388L203.537 174.629H204.522V176.235H206.493V177.194H204.522V180.879C204.522 181.302 204.608 181.59 204.779 181.743C204.95 181.887 205.251 181.959 205.683 181.959H206.385V182.931H205.359ZM210.76 183.093C210.121 183.093 209.554 182.949 209.059 182.661C208.564 182.364 208.172 181.955 207.884 181.433C207.605 180.911 207.466 180.294 207.466 179.583C207.466 178.881 207.605 178.269 207.884 177.747C208.163 177.216 208.55 176.807 209.045 176.519C209.549 176.222 210.13 176.073 210.787 176.073C211.435 176.073 211.993 176.222 212.461 176.519C212.938 176.807 213.302 177.189 213.554 177.666C213.806 178.143 213.932 178.656 213.932 179.205C213.932 179.304 213.928 179.403 213.919 179.502C213.919 179.601 213.919 179.714 213.919 179.84H208.586C208.613 180.353 208.73 180.78 208.937 181.122C209.153 181.455 209.419 181.707 209.734 181.878C210.058 182.049 210.4 182.135 210.76 182.135C211.228 182.135 211.619 182.027 211.934 181.811C212.249 181.595 212.479 181.302 212.623 180.933H213.743C213.563 181.554 213.217 182.072 212.704 182.486C212.2 182.891 211.552 183.093 210.76 183.093ZM210.76 177.032C210.22 177.032 209.738 177.198 209.315 177.531C208.901 177.855 208.663 178.332 208.6 178.962H212.812C212.785 178.359 212.578 177.887 212.191 177.545C211.804 177.203 211.327 177.032 210.76 177.032ZM214.444 182.931L216.766 179.583L214.444 176.235H215.672L217.549 179.003L219.439 176.235H220.654L218.332 179.583L220.654 182.931H219.439L217.549 180.164L215.672 182.931H214.444ZM224.489 182.931C223.877 182.931 223.395 182.783 223.044 182.486C222.693 182.189 222.518 181.653 222.518 180.879V177.194H221.357V176.235H222.518L222.666 174.629H223.652V176.235H225.623V177.194H223.652V180.879C223.652 181.302 223.737 181.59 223.908 181.743C224.079 181.887 224.381 181.959 224.813 181.959H225.515V182.931H224.489ZM233.282 182.931C232.67 182.931 232.189 182.783 231.838 182.486C231.487 182.189 231.311 181.653 231.311 180.879V177.194H230.15V176.235H231.311L231.46 174.629H232.445V176.235H234.416V177.194H232.445V180.879C232.445 181.302 232.531 181.59 232.702 181.743C232.873 181.887 233.174 181.959 233.606 181.959H234.308V182.931H233.282ZM235.857 182.931V173.211H236.991V177.383C237.216 176.969 237.535 176.649 237.949 176.424C238.363 176.19 238.813 176.073 239.299 176.073C240.073 176.073 240.694 176.316 241.162 176.802C241.63 177.279 241.864 178.017 241.864 179.016V182.931H240.744V179.138C240.744 177.743 240.181 177.045 239.056 177.045C238.471 177.045 237.981 177.257 237.585 177.68C237.189 178.094 236.991 178.688 236.991 179.462V182.931H235.857ZM246.593 183.093C245.954 183.093 245.387 182.949 244.892 182.661C244.397 182.364 244.005 181.955 243.717 181.433C243.438 180.911 243.299 180.294 243.299 179.583C243.299 178.881 243.438 178.269 243.717 177.747C243.996 177.216 244.383 176.807 244.878 176.519C245.382 176.222 245.963 176.073 246.62 176.073C247.268 176.073 247.826 176.222 248.294 176.519C248.771 176.807 249.135 177.189 249.387 177.666C249.639 178.143 249.765 178.656 249.765 179.205C249.765 179.304 249.761 179.403 249.752 179.502C249.752 179.601 249.752 179.714 249.752 179.84H244.419C244.446 180.353 244.563 180.78 244.77 181.122C244.986 181.455 245.252 181.707 245.567 181.878C245.891 182.049 246.233 182.135 246.593 182.135C247.061 182.135 247.452 182.027 247.767 181.811C248.082 181.595 248.312 181.302 248.456 180.933H249.576C249.396 181.554 249.05 182.072 248.537 182.486C248.033 182.891 247.385 183.093 246.593 183.093ZM246.593 177.032C246.053 177.032 245.571 177.198 245.148 177.531C244.734 177.855 244.496 178.332 244.433 178.962H248.645C248.618 178.359 248.411 177.887 248.024 177.545C247.637 177.203 247.16 177.032 246.593 177.032ZM37.9314 211.901V202.235H38.9574L39.0654 203.342C39.2814 203.018 39.5874 202.726 39.9834 202.465C40.3884 202.204 40.9014 202.073 41.5224 202.073C42.1884 202.073 42.7689 202.226 43.2639 202.532C43.7589 202.838 44.1414 203.257 44.4114 203.788C44.6904 204.319 44.8299 204.922 44.8299 205.597C44.8299 206.272 44.6904 206.875 44.4114 207.406C44.1414 207.928 43.7544 208.342 43.2504 208.648C42.7554 208.945 42.1749 209.093 41.5089 209.093C40.9599 209.093 40.4694 208.981 40.0374 208.756C39.6144 208.531 39.2904 208.216 39.0654 207.811V211.901H37.9314ZM41.3874 208.108C41.8374 208.108 42.2334 208.004 42.5754 207.797C42.9174 207.581 43.1874 207.284 43.3854 206.906C43.5834 206.528 43.6824 206.087 43.6824 205.583C43.6824 205.079 43.5834 204.638 43.3854 204.26C43.1874 203.882 42.9174 203.59 42.5754 203.383C42.2334 203.167 41.8374 203.059 41.3874 203.059C40.9374 203.059 40.5414 203.167 40.1994 203.383C39.8574 203.59 39.5874 203.882 39.3894 204.26C39.1914 204.638 39.0924 205.079 39.0924 205.583C39.0924 206.087 39.1914 206.528 39.3894 206.906C39.5874 207.284 39.8574 207.581 40.1994 207.797C40.5414 208.004 40.9374 208.108 41.3874 208.108ZM46.4085 208.931V202.235H47.4345L47.529 203.518C47.736 203.077 48.051 202.726 48.474 202.465C48.897 202.204 49.419 202.073 50.04 202.073V203.261H49.7295C49.3335 203.261 48.969 203.333 48.636 203.477C48.303 203.612 48.0375 203.846 47.8395 204.179C47.6415 204.512 47.5425 204.971 47.5425 205.556V208.931H46.4085ZM52.0013 200.75C51.7763 200.75 51.5873 200.678 51.4343 200.534C51.2903 200.381 51.2183 200.192 51.2183 199.967C51.2183 199.751 51.2903 199.571 51.4343 199.427C51.5873 199.283 51.7763 199.211 52.0013 199.211C52.2173 199.211 52.4018 199.283 52.5548 199.427C52.7078 199.571 52.7843 199.751 52.7843 199.967C52.7843 200.192 52.7078 200.381 52.5548 200.534C52.4018 200.678 52.2173 200.75 52.0013 200.75ZM51.4343 208.931V202.235H52.5683V208.931H51.4343ZM54.5428 208.931V202.235H55.5688L55.6363 203.437C55.8523 203.014 56.1628 202.681 56.5678 202.438C56.9728 202.195 57.4318 202.073 57.9448 202.073C58.7368 202.073 59.3668 202.316 59.8348 202.802C60.3118 203.279 60.5503 204.017 60.5503 205.016V208.931H59.4163V205.138C59.4163 203.743 58.8403 203.045 57.6883 203.045C57.1123 203.045 56.6308 203.257 56.2438 203.68C55.8658 204.094 55.6768 204.688 55.6768 205.462V208.931H54.5428ZM64.9144 208.931C64.3024 208.931 63.8209 208.783 63.4699 208.486C63.1189 208.189 62.9434 207.653 62.9434 206.879V203.194H61.7824V202.235H62.9434L63.0919 200.629H64.0774V202.235H66.0484V203.194H64.0774V206.879C64.0774 207.302 64.1629 207.59 64.3339 207.743C64.5049 207.887 64.8064 207.959 65.2384 207.959H65.9404V208.931H64.9144ZM68.1776 200.75C67.9526 200.75 67.7636 200.678 67.6106 200.534C67.4666 200.381 67.3946 200.192 67.3946 199.967C67.3946 199.751 67.4666 199.571 67.6106 199.427C67.7636 199.283 67.9526 199.211 68.1776 199.211C68.3936 199.211 68.5781 199.283 68.7311 199.427C68.8841 199.571 68.9606 199.751 68.9606 199.967C68.9606 200.192 68.8841 200.381 68.7311 200.534C68.5781 200.678 68.3936 200.75 68.1776 200.75ZM67.6106 208.931V202.235H68.7446V208.931H67.6106ZM70.719 208.931V202.235H71.745L71.8125 203.437C72.0285 203.014 72.339 202.681 72.744 202.438C73.149 202.195 73.608 202.073 74.121 202.073C74.913 202.073 75.543 202.316 76.011 202.802C76.488 203.279 76.7265 204.017 76.7265 205.016V208.931H75.5925V205.138C75.5925 203.743 75.0165 203.045 73.8645 203.045C73.2885 203.045 72.807 203.257 72.42 203.68C72.042 204.094 71.853 204.688 71.853 205.462V208.931H70.719ZM81.0906 206.825C80.7126 206.825 80.3661 206.776 80.0511 206.677L79.3761 207.311C79.4751 207.383 79.5966 207.446 79.7406 207.5C79.8936 207.545 80.1096 207.59 80.3886 207.635C80.6676 207.671 81.0591 207.712 81.5631 207.757C82.4631 207.82 83.1066 208.027 83.4936 208.378C83.8806 208.729 84.0741 209.188 84.0741 209.755C84.0741 210.142 83.9661 210.511 83.7501 210.862C83.5431 211.213 83.2191 211.501 82.7781 211.726C82.3461 211.951 81.7881 212.063 81.1041 212.063C80.5011 212.063 79.9656 211.982 79.4976 211.82C79.0296 211.667 78.6651 211.429 78.4041 211.105C78.1431 210.79 78.0126 210.389 78.0126 209.903C78.0126 209.651 78.0801 209.377 78.2151 209.08C78.3501 208.792 78.6021 208.517 78.9711 208.256C78.7731 208.175 78.6021 208.09 78.4581 208C78.3231 207.901 78.1971 207.793 78.0801 207.676V207.365L79.2276 206.231C78.6966 205.781 78.4311 205.187 78.4311 204.449C78.4311 204.008 78.5346 203.608 78.7416 203.248C78.9486 202.888 79.2501 202.604 79.6461 202.397C80.0421 202.181 80.5236 202.073 81.0906 202.073C81.4776 202.073 81.8286 202.127 82.1436 202.235H84.6141V203.086L83.3586 203.14C83.6196 203.518 83.7501 203.954 83.7501 204.449C83.7501 204.89 83.6421 205.291 83.4261 205.651C83.2191 206.011 82.9176 206.299 82.5216 206.515C82.1346 206.722 81.6576 206.825 81.0906 206.825ZM81.0906 205.894C81.5676 205.894 81.9456 205.772 82.2246 205.529C82.5126 205.277 82.6566 204.917 82.6566 204.449C82.6566 203.99 82.5126 203.639 82.2246 203.396C81.9456 203.144 81.5676 203.018 81.0906 203.018C80.6046 203.018 80.2176 203.144 79.9296 203.396C79.6506 203.639 79.5111 203.99 79.5111 204.449C79.5111 204.917 79.6506 205.277 79.9296 205.529C80.2176 205.772 80.6046 205.894 81.0906 205.894ZM79.1196 209.795C79.1196 210.245 79.3086 210.578 79.6866 210.794C80.0646 211.019 80.5371 211.132 81.1041 211.132C81.6621 211.132 82.1076 211.01 82.4406 210.767C82.7826 210.524 82.9536 210.2 82.9536 209.795C82.9536 209.507 82.8366 209.255 82.6026 209.039C82.3686 208.832 81.9366 208.711 81.3066 208.675C80.8116 208.639 80.3841 208.594 80.0241 208.54C79.6551 208.738 79.4121 208.949 79.2951 209.174C79.1781 209.408 79.1196 209.615 79.1196 209.795ZM91.6936 209.093C91.1356 209.093 90.6721 208.999 90.3031 208.81C89.9341 208.621 89.6596 208.369 89.4796 208.054C89.2996 207.739 89.2096 207.397 89.2096 207.028C89.2096 206.344 89.4706 205.817 89.9926 205.448C90.5146 205.079 91.2256 204.895 92.1256 204.895H93.9346V204.814C93.9346 204.229 93.7816 203.788 93.4756 203.491C93.1696 203.185 92.7601 203.032 92.2471 203.032C91.8061 203.032 91.4236 203.144 91.0996 203.369C90.7846 203.585 90.5866 203.905 90.5056 204.328H89.3446C89.3896 203.842 89.5516 203.432 89.8306 203.099C90.1186 202.766 90.4741 202.514 90.8971 202.343C91.3201 202.163 91.7701 202.073 92.2471 202.073C93.1831 202.073 93.8851 202.325 94.3531 202.829C94.8301 203.324 95.0686 203.986 95.0686 204.814V208.931H94.0561L93.9886 207.73C93.7996 208.108 93.5206 208.432 93.1516 208.702C92.7916 208.963 92.3056 209.093 91.6936 209.093ZM91.8691 208.135C92.3011 208.135 92.6701 208.022 92.9761 207.797C93.2911 207.572 93.5296 207.28 93.6916 206.92C93.8536 206.56 93.9346 206.182 93.9346 205.786V205.772H92.2201C91.5541 205.772 91.0816 205.889 90.8026 206.123C90.5326 206.348 90.3976 206.632 90.3976 206.974C90.3976 207.325 90.5236 207.608 90.7756 207.824C91.0366 208.031 91.4011 208.135 91.8691 208.135ZM96.7698 208.931V202.235H97.7958L97.8633 203.437C98.0793 203.014 98.3898 202.681 98.7948 202.438C99.1998 202.195 99.6588 202.073 100.172 202.073C100.964 202.073 101.594 202.316 102.062 202.802C102.539 203.279 102.777 204.017 102.777 205.016V208.931H101.643V205.138C101.643 203.743 101.067 203.045 99.9153 203.045C99.3393 203.045 98.8578 203.257 98.4708 203.68C98.0928 204.094 97.9038 204.688 97.9038 205.462V208.931H96.7698ZM107.533 209.093C106.867 209.093 106.282 208.94 105.778 208.634C105.283 208.328 104.896 207.91 104.617 207.379C104.347 206.848 104.212 206.245 104.212 205.57C104.212 204.895 104.351 204.296 104.63 203.774C104.909 203.243 105.296 202.829 105.791 202.532C106.286 202.226 106.871 202.073 107.546 202.073C108.095 202.073 108.581 202.186 109.004 202.411C109.427 202.636 109.756 202.951 109.99 203.356V199.211H111.124V208.931H110.098L109.99 207.824C109.774 208.148 109.463 208.441 109.058 208.702C108.653 208.963 108.145 209.093 107.533 209.093ZM107.654 208.108C108.104 208.108 108.5 208.004 108.842 207.797C109.193 207.581 109.463 207.284 109.652 206.906C109.85 206.528 109.949 206.087 109.949 205.583C109.949 205.079 109.85 204.638 109.652 204.26C109.463 203.882 109.193 203.59 108.842 203.383C108.5 203.167 108.104 203.059 107.654 203.059C107.213 203.059 106.817 203.167 106.466 203.383C106.124 203.59 105.854 203.882 105.656 204.26C105.467 204.638 105.373 205.079 105.373 205.583C105.373 206.087 105.467 206.528 105.656 206.906C105.854 207.284 106.124 207.581 106.466 207.797C106.817 208.004 107.213 208.108 107.654 208.108ZM119.191 208.931C118.579 208.931 118.098 208.783 117.747 208.486C117.396 208.189 117.22 207.653 117.22 206.879V203.194H116.059V202.235H117.22L117.369 200.629H118.354V202.235H120.325V203.194H118.354V206.879C118.354 207.302 118.44 207.59 118.611 207.743C118.782 207.887 119.083 207.959 119.515 207.959H120.217V208.931H119.191ZM122.495 211.901L124.155 208.283H123.764L121.104 202.235H122.333L124.547 207.446L126.896 202.235H128.07L123.683 211.901H122.495ZM129.267 211.901V202.235H130.293L130.401 203.342C130.617 203.018 130.923 202.726 131.319 202.465C131.724 202.204 132.237 202.073 132.858 202.073C133.524 202.073 134.105 202.226 134.6 202.532C135.095 202.838 135.477 203.257 135.747 203.788C136.026 204.319 136.166 204.922 136.166 205.597C136.166 206.272 136.026 206.875 135.747 207.406C135.477 207.928 135.09 208.342 134.586 208.648C134.091 208.945 133.511 209.093 132.845 209.093C132.296 209.093 131.805 208.981 131.373 208.756C130.95 208.531 130.626 208.216 130.401 207.811V211.901H129.267ZM132.723 208.108C133.173 208.108 133.569 208.004 133.911 207.797C134.253 207.581 134.523 207.284 134.721 206.906C134.919 206.528 135.018 206.087 135.018 205.583C135.018 205.079 134.919 204.638 134.721 204.26C134.523 203.882 134.253 203.59 133.911 203.383C133.569 203.167 133.173 203.059 132.723 203.059C132.273 203.059 131.877 203.167 131.535 203.383C131.193 203.59 130.923 203.882 130.725 204.26C130.527 204.638 130.428 205.079 130.428 205.583C130.428 206.087 130.527 206.528 130.725 206.906C130.923 207.284 131.193 207.581 131.535 207.797C131.877 208.004 132.273 208.108 132.723 208.108ZM140.755 209.093C140.116 209.093 139.549 208.949 139.054 208.661C138.559 208.364 138.167 207.955 137.879 207.433C137.6 206.911 137.461 206.294 137.461 205.583C137.461 204.881 137.6 204.269 137.879 203.747C138.158 203.216 138.545 202.807 139.04 202.519C139.544 202.222 140.125 202.073 140.782 202.073C141.43 202.073 141.988 202.222 142.456 202.519C142.933 202.807 143.297 203.189 143.549 203.666C143.801 204.143 143.927 204.656 143.927 205.205C143.927 205.304 143.923 205.403 143.914 205.502C143.914 205.601 143.914 205.714 143.914 205.84H138.581C138.608 206.353 138.725 206.78 138.932 207.122C139.148 207.455 139.414 207.707 139.729 207.878C140.053 208.049 140.395 208.135 140.755 208.135C141.223 208.135 141.614 208.027 141.929 207.811C142.244 207.595 142.474 207.302 142.618 206.933H143.738C143.558 207.554 143.212 208.072 142.699 208.486C142.195 208.891 141.547 209.093 140.755 209.093ZM140.755 203.032C140.215 203.032 139.733 203.198 139.31 203.531C138.896 203.855 138.658 204.332 138.595 204.962H142.807C142.78 204.359 142.573 203.887 142.186 203.545C141.799 203.203 141.322 203.032 140.755 203.032ZM147.995 209.093C147.194 209.093 146.528 208.891 145.997 208.486C145.466 208.081 145.156 207.532 145.066 206.839H146.227C146.299 207.19 146.483 207.496 146.78 207.757C147.086 208.009 147.496 208.135 148.009 208.135C148.486 208.135 148.837 208.036 149.062 207.838C149.287 207.631 149.399 207.388 149.399 207.109C149.399 206.704 149.251 206.434 148.954 206.299C148.666 206.164 148.256 206.042 147.725 205.934C147.365 205.862 147.005 205.759 146.645 205.624C146.285 205.489 145.984 205.3 145.741 205.057C145.498 204.805 145.376 204.476 145.376 204.071C145.376 203.486 145.592 203.009 146.024 202.64C146.465 202.262 147.059 202.073 147.806 202.073C148.517 202.073 149.098 202.253 149.548 202.613C150.007 202.964 150.272 203.468 150.344 204.125H149.224C149.179 203.783 149.03 203.518 148.778 203.329C148.535 203.131 148.207 203.032 147.793 203.032C147.388 203.032 147.073 203.117 146.848 203.288C146.632 203.459 146.524 203.684 146.524 203.963C146.524 204.233 146.663 204.445 146.942 204.598C147.23 204.751 147.617 204.881 148.103 204.989C148.517 205.079 148.909 205.192 149.278 205.327C149.656 205.453 149.962 205.646 150.196 205.907C150.439 206.159 150.56 206.528 150.56 207.014C150.569 207.617 150.34 208.117 149.872 208.513C149.413 208.9 148.787 209.093 147.995 209.093ZM155.191 209.093C154.552 209.093 153.985 208.949 153.49 208.661C152.995 208.364 152.603 207.955 152.315 207.433C152.036 206.911 151.897 206.294 151.897 205.583C151.897 204.881 152.036 204.269 152.315 203.747C152.594 203.216 152.981 202.807 153.476 202.519C153.98 202.222 154.561 202.073 155.218 202.073C155.866 202.073 156.424 202.222 156.892 202.519C157.369 202.807 157.733 203.189 157.985 203.666C158.237 204.143 158.363 204.656 158.363 205.205C158.363 205.304 158.359 205.403 158.35 205.502C158.35 205.601 158.35 205.714 158.35 205.84H153.017C153.044 206.353 153.161 206.78 153.368 207.122C153.584 207.455 153.85 207.707 154.165 207.878C154.489 208.049 154.831 208.135 155.191 208.135C155.659 208.135 156.05 208.027 156.365 207.811C156.68 207.595 156.91 207.302 157.054 206.933H158.174C157.994 207.554 157.648 208.072 157.135 208.486C156.631 208.891 155.983 209.093 155.191 209.093ZM155.191 203.032C154.651 203.032 154.169 203.198 153.746 203.531C153.332 203.855 153.094 204.332 153.031 204.962H157.243C157.216 204.359 157.009 203.887 156.622 203.545C156.235 203.203 155.758 203.032 155.191 203.032ZM162.288 208.931C161.676 208.931 161.195 208.783 160.844 208.486C160.493 208.189 160.317 207.653 160.317 206.879V203.194H159.156V202.235H160.317L160.466 200.629H161.451V202.235H163.422V203.194H161.451V206.879C161.451 207.302 161.537 207.59 161.708 207.743C161.879 207.887 162.18 207.959 162.612 207.959H163.314V208.931H162.288ZM167.509 208.931C166.897 208.931 166.416 208.783 166.065 208.486C165.714 208.189 165.538 207.653 165.538 206.879V203.194H164.377V202.235H165.538L165.687 200.629H166.672V202.235H168.643V203.194H166.672V206.879C166.672 207.302 166.758 207.59 166.929 207.743C167.1 207.887 167.401 207.959 167.833 207.959H168.535V208.931H167.509ZM170.772 200.75C170.547 200.75 170.358 200.678 170.205 200.534C170.061 200.381 169.989 200.192 169.989 199.967C169.989 199.751 170.061 199.571 170.205 199.427C170.358 199.283 170.547 199.211 170.772 199.211C170.988 199.211 171.173 199.283 171.326 199.427C171.479 199.571 171.555 199.751 171.555 199.967C171.555 200.192 171.479 200.381 171.326 200.534C171.173 200.678 170.988 200.75 170.772 200.75ZM170.205 208.931V202.235H171.339V208.931H170.205ZM173.314 208.931V202.235H174.34L174.407 203.437C174.623 203.014 174.934 202.681 175.339 202.438C175.744 202.195 176.203 202.073 176.716 202.073C177.508 202.073 178.138 202.316 178.606 202.802C179.083 203.279 179.321 204.017 179.321 205.016V208.931H178.187V205.138C178.187 203.743 177.611 203.045 176.459 203.045C175.883 203.045 175.402 203.257 175.015 203.68C174.637 204.094 174.448 204.688 174.448 205.462V208.931H173.314ZM183.685 206.825C183.307 206.825 182.961 206.776 182.646 206.677L181.971 207.311C182.07 207.383 182.191 207.446 182.335 207.5C182.488 207.545 182.704 207.59 182.983 207.635C183.262 207.671 183.654 207.712 184.158 207.757C185.058 207.82 185.701 208.027 186.088 208.378C186.475 208.729 186.669 209.188 186.669 209.755C186.669 210.142 186.561 210.511 186.345 210.862C186.138 211.213 185.814 211.501 185.373 211.726C184.941 211.951 184.383 212.063 183.699 212.063C183.096 212.063 182.56 211.982 182.092 211.82C181.624 211.667 181.26 211.429 180.999 211.105C180.738 210.79 180.607 210.389 180.607 209.903C180.607 209.651 180.675 209.377 180.81 209.08C180.945 208.792 181.197 208.517 181.566 208.256C181.368 208.175 181.197 208.09 181.053 208C180.918 207.901 180.792 207.793 180.675 207.676V207.365L181.822 206.231C181.291 205.781 181.026 205.187 181.026 204.449C181.026 204.008 181.129 203.608 181.336 203.248C181.543 202.888 181.845 202.604 182.241 202.397C182.637 202.181 183.118 202.073 183.685 202.073C184.072 202.073 184.423 202.127 184.738 202.235H187.209V203.086L185.953 203.14C186.214 203.518 186.345 203.954 186.345 204.449C186.345 204.89 186.237 205.291 186.021 205.651C185.814 206.011 185.512 206.299 185.116 206.515C184.729 206.722 184.252 206.825 183.685 206.825ZM183.685 205.894C184.162 205.894 184.54 205.772 184.819 205.529C185.107 205.277 185.251 204.917 185.251 204.449C185.251 203.99 185.107 203.639 184.819 203.396C184.54 203.144 184.162 203.018 183.685 203.018C183.199 203.018 182.812 203.144 182.524 203.396C182.245 203.639 182.106 203.99 182.106 204.449C182.106 204.917 182.245 205.277 182.524 205.529C182.812 205.772 183.199 205.894 183.685 205.894ZM181.714 209.795C181.714 210.245 181.903 210.578 182.281 210.794C182.659 211.019 183.132 211.132 183.699 211.132C184.257 211.132 184.702 211.01 185.035 210.767C185.377 210.524 185.548 210.2 185.548 209.795C185.548 209.507 185.431 209.255 185.197 209.039C184.963 208.832 184.531 208.711 183.901 208.675C183.406 208.639 182.979 208.594 182.619 208.54C182.25 208.738 182.007 208.949 181.89 209.174C181.773 209.408 181.714 209.615 181.714 209.795ZM192.749 200.75C192.524 200.75 192.335 200.678 192.182 200.534C192.038 200.381 191.966 200.192 191.966 199.967C191.966 199.751 192.038 199.571 192.182 199.427C192.335 199.283 192.524 199.211 192.749 199.211C192.965 199.211 193.15 199.283 193.303 199.427C193.456 199.571 193.532 199.751 193.532 199.967C193.532 200.192 193.456 200.381 193.303 200.534C193.15 200.678 192.965 200.75 192.749 200.75ZM192.182 208.931V202.235H193.316V208.931H192.182ZM195.291 208.931V202.235H196.317L196.384 203.437C196.6 203.014 196.911 202.681 197.316 202.438C197.721 202.195 198.18 202.073 198.693 202.073C199.485 202.073 200.115 202.316 200.583 202.802C201.06 203.279 201.298 204.017 201.298 205.016V208.931H200.164V205.138C200.164 203.743 199.588 203.045 198.436 203.045C197.86 203.045 197.379 203.257 196.992 203.68C196.614 204.094 196.425 204.688 196.425 205.462V208.931H195.291ZM206.054 209.093C205.388 209.093 204.803 208.94 204.299 208.634C203.804 208.328 203.417 207.91 203.138 207.379C202.868 206.848 202.733 206.245 202.733 205.57C202.733 204.895 202.872 204.296 203.151 203.774C203.43 203.243 203.817 202.829 204.312 202.532C204.807 202.226 205.392 202.073 206.067 202.073C206.616 202.073 207.102 202.186 207.525 202.411C207.948 202.636 208.277 202.951 208.511 203.356V199.211H209.645V208.931H208.619L208.511 207.824C208.295 208.148 207.984 208.441 207.579 208.702C207.174 208.963 206.666 209.093 206.054 209.093ZM206.175 208.108C206.625 208.108 207.021 208.004 207.363 207.797C207.714 207.581 207.984 207.284 208.173 206.906C208.371 206.528 208.47 206.087 208.47 205.583C208.47 205.079 208.371 204.638 208.173 204.26C207.984 203.882 207.714 203.59 207.363 203.383C207.021 203.167 206.625 203.059 206.175 203.059C205.734 203.059 205.338 203.167 204.987 203.383C204.645 203.59 204.375 203.882 204.177 204.26C203.988 204.638 203.894 205.079 203.894 205.583C203.894 206.087 203.988 206.528 204.177 206.906C204.375 207.284 204.645 207.581 204.987 207.797C205.338 208.004 205.734 208.108 206.175 208.108ZM213.937 209.093C213.145 209.093 212.515 208.855 212.047 208.378C211.579 207.892 211.345 207.149 211.345 206.15V202.235H212.479V206.029C212.479 207.424 213.05 208.121 214.193 208.121C214.778 208.121 215.26 207.914 215.638 207.5C216.025 207.077 216.218 206.479 216.218 205.705V202.235H217.352V208.931H216.326L216.245 207.73C216.038 208.153 215.728 208.486 215.314 208.729C214.909 208.972 214.45 209.093 213.937 209.093ZM221.784 209.093C220.983 209.093 220.317 208.891 219.786 208.486C219.255 208.081 218.945 207.532 218.855 206.839H220.016C220.088 207.19 220.272 207.496 220.569 207.757C220.875 208.009 221.285 208.135 221.798 208.135C222.275 208.135 222.626 208.036 222.851 207.838C223.076 207.631 223.188 207.388 223.188 207.109C223.188 206.704 223.04 206.434 222.743 206.299C222.455 206.164 222.045 206.042 221.514 205.934C221.154 205.862 220.794 205.759 220.434 205.624C220.074 205.489 219.773 205.3 219.53 205.057C219.287 204.805 219.165 204.476 219.165 204.071C219.165 203.486 219.381 203.009 219.813 202.64C220.254 202.262 220.848 202.073 221.595 202.073C222.306 202.073 222.887 202.253 223.337 202.613C223.796 202.964 224.061 203.468 224.133 204.125H223.013C222.968 203.783 222.819 203.518 222.567 203.329C222.324 203.131 221.996 203.032 221.582 203.032C221.177 203.032 220.862 203.117 220.637 203.288C220.421 203.459 220.313 203.684 220.313 203.963C220.313 204.233 220.452 204.445 220.731 204.598C221.019 204.751 221.406 204.881 221.892 204.989C222.306 205.079 222.698 205.192 223.067 205.327C223.445 205.453 223.751 205.646 223.985 205.907C224.228 206.159 224.349 206.528 224.349 207.014C224.358 207.617 224.129 208.117 223.661 208.513C223.202 208.9 222.576 209.093 221.784 209.093ZM228.312 208.931C227.7 208.931 227.218 208.783 226.867 208.486C226.516 208.189 226.341 207.653 226.341 206.879V203.194H225.18V202.235H226.341L226.489 200.629H227.475V202.235H229.446V203.194H227.475V206.879C227.475 207.302 227.56 207.59 227.731 207.743C227.902 207.887 228.204 207.959 228.636 207.959H229.338V208.931H228.312ZM230.887 208.931V202.235H231.913L232.007 203.518C232.214 203.077 232.529 202.726 232.952 202.465C233.375 202.204 233.897 202.073 234.518 202.073V203.261H234.208C233.812 203.261 233.447 203.333 233.114 203.477C232.781 203.612 232.516 203.846 232.318 204.179C232.12 204.512 232.021 204.971 232.021 205.556V208.931H230.887ZM236.52 211.901L238.18 208.283H237.789L235.129 202.235H236.358L238.572 207.446L240.921 202.235H242.095L237.708 211.901H236.52ZM242.721 208.999C242.496 208.999 242.307 208.927 242.154 208.783C242.01 208.63 241.938 208.445 241.938 208.229C241.938 208.013 242.01 207.833 242.154 207.689C242.307 207.536 242.496 207.46 242.721 207.46C242.937 207.46 243.117 207.536 243.261 207.689C243.414 207.833 243.491 208.013 243.491 208.229C243.491 208.445 243.414 208.63 243.261 208.783C243.117 208.927 242.937 208.999 242.721 208.999Z" fill="#747474"/>
<path d="M115.852 242.931V234.531H118.744C119.408 234.531 119.952 234.643 120.376 234.867C120.808 235.091 121.128 235.395 121.336 235.779C121.544 236.155 121.648 236.575 121.648 237.039C121.648 237.559 121.508 238.031 121.228 238.455C120.956 238.879 120.528 239.183 119.944 239.367L121.732 242.931H120.256L118.624 239.547H117.124V242.931H115.852ZM117.124 238.587H118.672C119.248 238.587 119.668 238.447 119.932 238.167C120.204 237.887 120.34 237.523 120.34 237.075C120.34 236.627 120.208 236.271 119.944 236.007C119.68 235.735 119.252 235.599 118.66 235.599H117.124V238.587ZM125.525 243.075C124.941 243.075 124.421 242.947 123.965 242.691C123.517 242.427 123.165 242.063 122.909 241.599C122.653 241.135 122.525 240.595 122.525 239.979C122.525 239.355 122.649 238.807 122.897 238.335C123.153 237.863 123.505 237.495 123.953 237.231C124.409 236.967 124.937 236.835 125.537 236.835C126.121 236.835 126.629 236.967 127.061 237.231C127.493 237.487 127.829 237.831 128.069 238.263C128.309 238.695 128.429 239.171 128.429 239.691C128.429 239.771 128.425 239.859 128.417 239.955C128.417 240.043 128.413 240.143 128.405 240.255H123.773C123.813 240.831 124.001 241.271 124.337 241.575C124.681 241.871 125.077 242.019 125.525 242.019C125.885 242.019 126.185 241.939 126.425 241.779C126.673 241.611 126.857 241.387 126.977 241.107H128.249C128.089 241.667 127.769 242.135 127.289 242.511C126.817 242.887 126.229 243.075 125.525 243.075ZM125.525 237.879C125.101 237.879 124.725 238.007 124.397 238.263C124.069 238.511 123.869 238.887 123.797 239.391H127.157C127.133 238.927 126.969 238.559 126.665 238.287C126.361 238.015 125.981 237.879 125.525 237.879ZM131.765 243.075C131.261 243.075 130.845 242.991 130.517 242.823C130.189 242.655 129.945 242.435 129.785 242.163C129.625 241.883 129.545 241.579 129.545 241.251C129.545 240.675 129.769 240.219 130.217 239.883C130.665 239.547 131.305 239.379 132.137 239.379H133.697V239.271C133.697 238.807 133.569 238.459 133.313 238.227C133.065 237.995 132.741 237.879 132.341 237.879C131.989 237.879 131.681 237.967 131.417 238.143C131.161 238.311 131.005 238.563 130.949 238.899H129.677C129.717 238.467 129.861 238.099 130.109 237.795C130.365 237.483 130.685 237.247 131.069 237.087C131.461 236.919 131.889 236.835 132.353 236.835C133.185 236.835 133.829 237.055 134.285 237.495C134.741 237.927 134.969 238.519 134.969 239.271V242.931H133.865L133.757 241.911C133.589 242.239 133.345 242.515 133.025 242.739C132.705 242.963 132.285 243.075 131.765 243.075ZM132.017 242.043C132.361 242.043 132.649 241.963 132.881 241.803C133.121 241.635 133.305 241.415 133.433 241.143C133.569 240.871 133.653 240.571 133.685 240.243H132.269C131.765 240.243 131.405 240.331 131.189 240.507C130.981 240.683 130.877 240.903 130.877 241.167C130.877 241.439 130.977 241.655 131.177 241.815C131.385 241.967 131.665 242.043 132.017 242.043ZM139.164 243.075C138.588 243.075 138.08 242.939 137.64 242.667C137.2 242.395 136.856 242.023 136.608 241.551C136.36 241.079 136.236 240.543 136.236 239.943C136.236 239.343 136.36 238.811 136.608 238.347C136.856 237.875 137.2 237.507 137.64 237.243C138.088 236.971 138.6 236.835 139.176 236.835C139.648 236.835 140.06 236.927 140.412 237.111C140.772 237.295 141.052 237.555 141.252 237.891V234.291H142.524V242.931H141.384L141.252 242.007C141.06 242.287 140.796 242.535 140.46 242.751C140.124 242.967 139.692 243.075 139.164 243.075ZM139.392 241.971C139.936 241.971 140.38 241.783 140.724 241.407C141.076 241.031 141.252 240.547 141.252 239.955C141.252 239.355 141.076 238.871 140.724 238.503C140.38 238.127 139.936 237.939 139.392 237.939C138.848 237.939 138.4 238.127 138.048 238.503C137.696 238.871 137.52 239.355 137.52 239.955C137.52 240.347 137.6 240.695 137.76 240.999C137.92 241.303 138.14 241.543 138.42 241.719C138.708 241.887 139.032 241.971 139.392 241.971ZM147.152 242.931V236.979H148.28L148.388 237.819C148.58 237.515 148.832 237.275 149.144 237.099C149.464 236.923 149.832 236.835 150.248 236.835C151.192 236.835 151.848 237.207 152.216 237.951C152.432 237.607 152.72 237.335 153.08 237.135C153.448 236.935 153.844 236.835 154.268 236.835C155.012 236.835 155.596 237.059 156.02 237.507C156.444 237.955 156.656 238.623 156.656 239.511V242.931H155.384V239.643C155.384 238.491 154.944 237.915 154.064 237.915C153.616 237.915 153.248 238.083 152.96 238.419C152.68 238.755 152.54 239.235 152.54 239.859V242.931H151.268V239.643C151.268 238.491 150.824 237.915 149.936 237.915C149.496 237.915 149.132 238.083 148.844 238.419C148.564 238.755 148.424 239.235 148.424 239.859V242.931H147.152ZM160.928 243.075C160.36 243.075 159.848 242.947 159.392 242.691C158.944 242.427 158.588 242.063 158.324 241.599C158.06 241.127 157.928 240.579 157.928 239.955C157.928 239.331 158.06 238.787 158.324 238.323C158.596 237.851 158.96 237.487 159.416 237.231C159.872 236.967 160.38 236.835 160.94 236.835C161.508 236.835 162.016 236.967 162.464 237.231C162.92 237.487 163.28 237.851 163.544 238.323C163.816 238.787 163.952 239.331 163.952 239.955C163.952 240.579 163.816 241.127 163.544 241.599C163.28 242.063 162.92 242.427 162.464 242.691C162.008 242.947 161.496 243.075 160.928 243.075ZM160.928 241.983C161.232 241.983 161.512 241.907 161.768 241.755C162.032 241.603 162.244 241.379 162.404 241.083C162.564 240.779 162.644 240.403 162.644 239.955C162.644 239.507 162.564 239.135 162.404 238.839C162.252 238.535 162.044 238.307 161.78 238.155C161.524 238.003 161.244 237.927 160.94 237.927C160.636 237.927 160.352 238.003 160.088 238.155C159.832 238.307 159.624 238.535 159.464 238.839C159.304 239.135 159.224 239.507 159.224 239.955C159.224 240.403 159.304 240.779 159.464 241.083C159.624 241.379 159.832 241.603 160.088 241.755C160.344 241.907 160.624 241.983 160.928 241.983ZM165.327 242.931V236.979H166.467L166.575 238.107C166.783 237.715 167.071 237.407 167.439 237.183C167.815 236.951 168.267 236.835 168.795 236.835V238.167H168.447C168.095 238.167 167.779 238.227 167.499 238.347C167.227 238.459 167.007 238.655 166.839 238.935C166.679 239.207 166.599 239.587 166.599 240.075V242.931H165.327ZM172.506 243.075C171.922 243.075 171.402 242.947 170.946 242.691C170.498 242.427 170.146 242.063 169.89 241.599C169.634 241.135 169.506 240.595 169.506 239.979C169.506 239.355 169.63 238.807 169.878 238.335C170.134 237.863 170.486 237.495 170.934 237.231C171.39 236.967 171.918 236.835 172.518 236.835C173.102 236.835 173.61 236.967 174.042 237.231C174.474 237.487 174.81 237.831 175.05 238.263C175.29 238.695 175.41 239.171 175.41 239.691C175.41 239.771 175.406 239.859 175.398 239.955C175.398 240.043 175.394 240.143 175.386 240.255H170.754C170.794 240.831 170.982 241.271 171.318 241.575C171.662 241.871 172.058 242.019 172.506 242.019C172.866 242.019 173.166 241.939 173.406 241.779C173.654 241.611 173.838 241.387 173.958 241.107H175.23C175.07 241.667 174.75 242.135 174.27 242.511C173.798 242.887 173.21 243.075 172.506 243.075ZM172.506 237.879C172.082 237.879 171.706 238.007 171.378 238.263C171.05 238.511 170.85 238.887 170.778 239.391H174.138C174.114 238.927 173.95 238.559 173.646 238.287C173.342 238.015 172.962 237.879 172.506 237.879Z" fill="#3D3D3F"/>
<path d="M115 244.431H175.926V245.031H115V244.431Z" fill="#3D3D3F"/>
<circle cx="146.519" cy="74.4506" r="35.5193" fill="#E9F6EE"/>
<g clip-path="url(#clip0_2_199)">
<path d="M164.064 64.0042L166.004 62.0645C166.326 61.7419 166.432 61.2615 166.275 60.8334C166.119 60.4049 165.728 60.1064 165.273 60.068L161.674 59.7643L161.371 56.1654C161.333 55.711 161.034 55.3201 160.606 55.1635C160.177 55.0067 159.697 55.1129 159.375 55.4354L157.435 57.3751C154.297 55.4516 150.71 54.4387 147 54.4387C141.658 54.4387 136.635 56.5191 132.858 60.2966C129.08 64.074 127 69.0966 127 74.4387C127 79.7808 129.08 84.8034 132.858 88.5809C136.635 92.3583 141.658 94.4387 147 94.4387C152.342 94.4387 157.365 92.3583 161.142 88.5809C164.92 84.8034 167 79.7808 167 74.4387C167 70.7284 165.987 67.1417 164.064 64.0042ZM159.422 60.9475C159.47 61.517 159.922 61.9686 160.491 62.0168L162.562 62.1914L159.759 64.9941L156.702 64.7363L156.445 61.6796L159.247 58.8769L159.422 60.9475ZM150.984 74.4387C150.984 76.6357 149.197 78.4231 147 78.4231C144.803 78.4231 143.016 76.6357 143.016 74.4387C143.016 72.2418 144.803 70.4543 147 70.4543C147.673 70.4543 148.307 70.6225 148.863 70.9182L146.171 73.6102C145.714 74.0676 145.714 74.8095 146.171 75.2673C146.4 75.4962 146.7 75.6106 147 75.6106C147.3 75.6106 147.6 75.4962 147.828 75.2673L150.52 72.5756C150.816 73.132 150.984 73.7658 150.984 74.4387ZM150.567 69.2147C149.55 68.5189 148.322 68.1106 147 68.1106C143.511 68.1106 140.672 70.9493 140.672 74.4387C140.672 77.9281 143.511 80.7668 147 80.7668C150.489 80.7668 153.328 77.9281 153.328 74.4387C153.328 73.1167 152.92 71.8884 152.224 70.8721L155.57 67.5262C157.099 69.4177 158.016 71.8231 158.016 74.4387C158.016 80.5126 153.074 85.4543 147 85.4543C140.926 85.4543 135.984 80.5126 135.984 74.4387C135.984 68.3648 140.926 63.4231 147 63.4231C149.616 63.4231 152.021 64.3401 153.912 65.8688L150.567 69.2147ZM159.485 86.9235C156.15 90.2584 151.716 92.095 147 92.095C142.284 92.095 137.85 90.2584 134.515 86.9235C131.18 83.5888 129.344 79.1549 129.344 74.4387C129.344 69.7225 131.18 65.2886 134.515 61.954C137.85 58.619 142.284 56.7825 147 56.7825C150.085 56.7825 153.074 57.575 155.724 59.0853L154.403 60.407C154.189 60.6207 154.067 60.9069 154.06 61.2057C154.059 61.2484 154.06 61.2911 154.063 61.3342L154.221 63.204C152.138 61.86 149.658 61.0793 147 61.0793C139.634 61.0793 133.641 67.0724 133.641 74.4387C133.641 81.8051 139.634 87.7981 147 87.7981C154.366 87.7981 160.359 81.8051 160.359 74.4387C160.359 71.7803 159.579 69.3011 158.235 67.2177L160.104 67.3754C160.137 67.3779 160.17 67.3794 160.203 67.3794C160.209 67.3794 160.214 67.3788 160.22 67.3785C160.235 67.3785 160.251 67.3773 160.266 67.3763C160.292 67.3748 160.317 67.3733 160.342 67.3702C160.358 67.3681 160.373 67.3657 160.389 67.3632C160.414 67.3593 160.438 67.3547 160.462 67.3492C160.478 67.3455 160.493 67.3416 160.509 67.3376C160.532 67.3312 160.556 67.3239 160.579 67.3159C160.595 67.3107 160.61 67.3055 160.625 67.2997C160.647 67.2909 160.67 67.2811 160.693 67.2704C160.707 67.264 160.721 67.2576 160.736 67.2503C160.758 67.2387 160.78 67.2259 160.802 67.2131C160.815 67.2051 160.828 67.1978 160.841 67.1899C160.864 67.1746 160.886 67.1581 160.909 67.1414C160.919 67.1334 160.93 67.1264 160.94 67.1182C160.971 67.0925 161.002 67.0654 161.032 67.0361L162.353 65.7144C163.864 68.3648 164.656 71.3534 164.656 74.4387C164.656 79.1549 162.82 83.5888 159.485 86.9235Z" fill="#34D27B"/>
</g>
<defs>
<filter id="filter0_d_2_199" x="-6.10352e-05" y="-0.000366211" width="292.932" height="292.932" filterUnits="userSpaceOnUse" color-interpolation-filters="sRGB">
<feFlood flood-opacity="0" result="BackgroundImageFix"/>
<feColorMatrix in="SourceAlpha" type="matrix" values="0 0 0 0 0 0 0 0 0 0 0 0 0 0 0 0 0 0 127 0" result="hardAlpha"/>
<feOffset dy="6"/>
<feGaussianBlur stdDeviation="6"/>
<feColorMatrix type="matrix" values="0 0 0 0 0.172549 0 0 0 0 0.0862745 0 0 0 0 0.329412 0 0 0 0.01 0"/>
<feBlend mode="normal" in2="BackgroundImageFix" result="effect1_dropShadow_2_199"/>
<feBlend mode="normal" in="SourceGraphic" in2="effect1_dropShadow_2_199" result="shape"/>
</filter>
<clipPath id="clip0_2_199">
<rect width="40" height="40" fill="white" transform="translate(127 54.4387)"/>
</clipPath>
</defs>
</svg>
